<svg xmlns="http://www.w3.org/2000/svg" style="display:none">

  <style type="text/css">
    svg * {
      transition: fill .1s ease-out, opacity .1s ease-out;
    }
  </style>

  <symbol id="logo" viewBox="0 0 197 37">
    <title>ravel logo</title>
    <path d="M5.512,6.424 L19.096,6.424 C22.504,6.424 25.192,7.72 25.192,11.464 C25.192,15.304 22.696,16.936 19.096,16.936 L12.28,16.936 C9.928,16.936 7.672,17.08 5.512,18.328 L5.512,6.424 Z M20.824,31.336 C23.56,37 27.784,37 31.96,37 L31.96,31.672 L30.808,31.72 L30.28,31.72 C27.976,31.72 27.16,31 24.904,27.688 L22.12,21.976 C27.304,20.68 30.376,17.176 30.376,11.752 C30.376,4.984 25.624,1.192 19.096,1.192 L0.28,1.192 L0.28,37 L5.512,37 L5.512,23.56 C7.672,22.408 9.976,22.168 12.28,22.168 L16.456,22.168 L20.824,31.336 Z M58.784,4.984 L43.28,37 L48.944,37 L49.856,35.32 C50.672,33.832 54.176,31.768 60.704,31.768 L71.6,31.768 L73.952,37 L79.808,37 L62.576,0.568 L56.816,0.568 L58.784,4.984 Z M62.624,26.488 C57.728,26.488 54.8,27.4 53.504,28.504 L61.424,11.368 L69.248,26.488 L62.624,26.488 Z M119.376,1.192 L113.616,1.192 L101.28,31.144 L89.04,1.192 L83.376,1.192 L98.16,37 L104.352,37 L119.376,1.192 Z M136.328,22.648 C138.488,21.496 140.792,21.256 143.096,21.256 L150.92,21.256 L150.92,15.928 L143.096,15.928 C140.744,15.928 138.488,16.072 136.328,17.32 L136.328,6.472 L156.296,6.472 L156.296,1.192 L131.096,1.192 L131.096,37 L158.408,37 L158.408,31.768 L136.328,31.768 L136.328,22.648 Z M196.912,37 L196.912,31.768 L177.04,31.768 L177.04,1.192 L171.808,1.192 L171.808,37 L196.912,37 Z"></path>
  </symbol>

</svg>
