<svg width="197" height="37" viewBox="0 0 197 37" xmlns="http://www.w3.org/2000/svg"><title>logo</title><g id="Page-1" fill="none" fill-rule="evenodd"><path d="M5.512 6.424h13.584c3.408 0 6.096 1.296 6.096 5.04 0 3.84-2.496 5.472-6.096 5.472H12.28c-2.352 0-4.608.144-6.768 1.392V6.424zm15.312 24.912C23.56 37 27.784 37 31.96 37v-5.328l-1.152.048h-.528c-2.304 0-3.12-.72-5.376-4.032l-2.784-5.712c5.184-1.296 8.256-4.8 8.256-10.224 0-6.768-4.752-10.56-11.28-10.56H.28V37h5.232V23.56c2.16-1.152 4.464-1.392 6.768-1.392h4.176l4.368 9.168zm37.96-26.352L43.28 37h5.664l.912-1.68c.816-1.488 4.32-3.552 10.848-3.552H71.6L73.952 37h5.856L62.576.568h-5.76l1.968 4.416zm3.84 21.504c-4.896 0-7.824.912-9.12 2.016l7.92-17.136 7.824 15.12h-6.624zm56.752-25.296h-5.76L101.28 31.144 89.04 1.192h-5.664L98.16 37h6.192l15.024-35.808zm16.952 21.456c2.16-1.152 4.464-1.392 6.768-1.392h7.824v-5.328h-7.824c-2.352 0-4.608.144-6.768 1.392V6.472h19.968v-5.28h-25.2V37h27.312v-5.232h-22.08v-9.12zM196.912 37v-5.232H177.04V1.192h-5.232V37h25.104z" id="logo" fill="#FFF"/></g></svg>