<?xml version="1.0" encoding="utf-8"?>
<!-- Generator: Adobe Illustrator 18.1.1, SVG Export Plug-In . SVG Version: 6.00 Build 0)  -->
<svg version="1.1" id="Layer_1" xmlns="http://www.w3.org/2000/svg" xmlns:xlink="http://www.w3.org/1999/xlink" x="0px" y="0px"
	 viewBox="0 0 239.7 97.2" enable-background="new 0 0 239.7 97.2" xml:space="preserve">
<g>
	<g>
		<polygon fill="#B3BC35" points="165.9,69.3 175.3,69.3 175.3,0 165.9,0 165.9,69.3 		"/>
		<polygon fill="#B3BC35" points="187.7,45.9 208,22.6 196.6,22.6 175.3,46 198.3,69.3 210.8,69.3 187.7,45.9 		"/>
	</g>
	<path fill="#7686C2" d="M134.2,21.6L134.2,21.6c-13.4,0-24.3,10.9-24.3,24.3c0,13.4,10.9,24.3,24.3,24.3
		c13.4,0,24.3-10.9,24.3-24.3C158.4,32.5,147.6,21.6,134.2,21.6 M134.2,60.7c-8.2,0-14.8-6.6-14.8-14.8c0-8.2,6.6-14.8,14.8-14.8
		c8.2,0,14.8,6.6,14.8,14.8C149,54.1,142.3,60.7,134.2,60.7"/>
	<path fill="#1A4822" d="M80.4,21.6c-13.4,0-24.3,10.9-24.3,24.3c0,13.4,10.9,24.3,24.3,24.3c13.4,0,24.3-10.9,24.3-24.3
		C104.7,32.5,93.9,21.6,80.4,21.6 M65.6,45.9c0-8.2,6.6-14.8,14.8-14.8c8.2,0,14.8,6.6,14.8,14.8c0,8.2-6.6,14.8-14.8,14.8
		C72.2,60.7,65.6,54.1,65.6,45.9"/>
	<path fill="#429644" d="M39.1,45.6c0-8.2-6.6-14.4-14.8-14.4c-8,0-14.8,6.4-14.8,14.4v23.7H0l0-24.1c0-12.4,11.2-23.4,24.3-23.4
		c13.1,0,24.3,11,24.3,23.4v24.1h-9.5V45.6L39.1,45.6z"/>
	<g>
		<path fill="#7686C2" d="M112.4,81.3h1.2v4.9c0.4-0.3,1.2-1,2.5-1c2.2,0,3.4,1.9,3.4,3.9c0,2.6-1.6,4.2-4.2,4.2c-1,0-2-0.2-2.9-0.6
			V81.3z M113.6,91.9c0.9,0.3,1.6,0.3,1.8,0.3c1.6,0,2.9-1.3,2.9-3.1c0-1.7-1.1-2.9-2.4-2.9c-0.6,0-1.4,0.3-2.2,1.1V91.9z"/>
		<path fill="#7686C2" d="M121.8,97.2h-1.3l2.7-5.6l-3.2-6.2h1.3l2.5,4.9l2.3-4.9h1.3L121.8,97.2z"/>
		<path fill="#7686C2" d="M136.4,81.3c1.8,0,3.8,0.7,3.8,3.1c0,1.7-1.3,2.4-1.8,2.6c2.3,0.4,2.8,2,2.8,3c0,1.4-1,3.2-3.5,3.2h-4.3
			V81.3H136.4z M134.7,82.4v4.1h1.3c2,0,2.8-0.8,2.8-2.1c0-1.5-0.9-2-2.8-2H134.7z M134.7,87.7V92h2.1c2.6,0,3-1.1,3-2.1
			c0-1-0.7-2.1-3-2.1H134.7z"/>
		<path fill="#7686C2" d="M149.1,92.6c-1,0.7-1.3,0.7-1.6,0.7c-0.6,0-0.8-0.5-0.8-0.9c-1,0.7-1.6,0.9-2.3,0.9c-1.1,0-2-0.8-2-2
			c0-1.3,1-2.3,4.3-2.9v-0.7c0-0.5-0.1-1.5-1.6-1.5c-1,0-1.8,0.5-2.4,1.1v-1.3c0.4-0.3,1.3-1,2.5-1c2.2,0,2.6,1.6,2.6,2.5v4.3
			c0,0.3,0,0.4,0.2,0.4c0.2,0,0.5-0.2,1-0.6V92.6z M146.7,89.2c-2,0.4-3.1,1-3.1,2c0,0.9,0.9,1.2,1.3,1.2c0.8,0,1.5-0.6,1.8-0.8
			V89.2z"/>
		<path fill="#7686C2" d="M151.7,85.3v1.7c0.2-0.3,0.7-1,1.3-1.4c0.2-0.1,0.7-0.4,1.2-0.4c0.7,0,1.6,0.7,1.9,0.9l-0.6,1
			c-0.3-0.2-0.8-0.7-1.5-0.7c-0.7,0-1.5,0.6-1.9,1.5c-0.3,0.6-0.3,1.5-0.3,1.9v3.4h-1.2v-7.8H151.7z"/>
		<path fill="#7686C2" d="M158.4,85.3v1.2c0.6-0.8,1.3-1.3,2.5-1.3c1.8,0,2.8,1.3,2.8,3.3v4.7h-1.2v-4.6c0-1.3-0.5-2.3-1.9-2.3
			c-0.5,0-1.4,0.1-2.2,1.4v5.5h-1.2v-7.8H158.4z"/>
		<path fill="#7686C2" d="M172.4,89.3h-5.8c0,1.9,1.3,2.9,2.8,2.9c1.5,0,2.5-0.8,2.9-1.1v1.2c-0.5,0.3-1.4,0.9-3,0.9
			c-2.6,0-3.9-2-3.9-4.1c0-2.7,1.8-4,3.6-4c1.9,0,3.4,1.6,3.4,3.9V89.3z M171.1,88.5c-0.2-1.7-1.3-2.2-2.2-2.2c-1,0-2,0.6-2.3,2.2
			H171.1z"/>
		<path fill="#7686C2" d="M178.5,87.1c-0.8-0.5-1.4-0.8-2.2-0.8c-0.8,0-1.3,0.5-1.3,1c0,0.6,0.5,0.9,2.4,1.9c0.4,0.2,1.4,0.8,1.4,2
			c0,0.8-0.6,2.2-2.6,2.2c-0.9,0-1.7-0.3-2.5-0.7v-1.2c1.3,0.8,2.1,0.9,2.5,0.9c0.6,0,1.3-0.4,1.3-1c0-0.7-0.7-1.1-1.7-1.6
			c-1-0.5-2.1-1-2.1-2.3c0-1,0.8-2.1,2.5-2.1c1.1,0,1.8,0.4,2.2,0.7V87.1z"/>
		<path fill="#7686C2" d="M194.6,93.2h-1.7l-1.6-1.7c-0.5,0.5-1.8,1.9-3.9,1.9c-1.5,0-3-1.1-3-2.8c0-1.5,1.2-2.7,2.9-3.6
			c-1.1-1.2-1.4-1.9-1.4-2.8c0-1.5,1.2-2.6,2.9-2.6c1.8,0,2.8,1.3,2.8,2.5c0,1.7-1.5,2.6-2.3,3.1l2.2,2.4c0.4-0.5,0.8-1.1,1.3-2.3
			h1.3c-0.4,1.1-1,2.2-1.8,3.3L194.6,93.2z M188,87.8c-2.2,1.4-2.3,1.9-2.3,2.6c0,0.9,0.7,1.7,1.8,1.7c1.3,0,2.1-0.8,2.9-1.6
			L188,87.8z M190.2,84.1c0-0.7-0.5-1.5-1.6-1.5c-1.2,0-1.6,0.8-1.6,1.4c0,0.6,0.4,1.4,1.3,2.2C189.2,85.9,190.2,85.2,190.2,84.1z"
			/>
		<path fill="#7686C2" d="M210.4,93.2h-1.1l-8.5-9.8v9.8h-1.3V81.3h1.1l8.5,9.8v-9.8h1.3V93.2z"/>
		<path fill="#7686C2" d="M220.2,89.2c0,2.2-1.8,4.1-4.1,4.1s-4.1-1.8-4.1-4.1c0-2.2,1.8-4.1,4.1-4.1S220.2,87,220.2,89.2z
			 M213.3,89.2c0,1.7,1.2,3,2.8,3c1.6,0,2.8-1.4,2.8-3c0-1.7-1.2-3-2.8-3C214.5,86.3,213.3,87.6,213.3,89.2z"/>
		<path fill="#7686C2" d="M221.5,81.3h1.2v4.9c0.4-0.3,1.2-1,2.5-1c2.2,0,3.4,1.9,3.4,3.9c0,2.6-1.6,4.2-4.2,4.2c-1,0-2-0.2-2.9-0.6
			V81.3z M222.7,91.9c0.9,0.3,1.6,0.3,1.8,0.3c1.6,0,2.9-1.3,2.9-3.1c0-1.7-1.1-2.9-2.4-2.9c-0.6,0-1.4,0.3-2.2,1.1V91.9z"/>
		<path fill="#7686C2" d="M231.2,93.2H230V81.3h1.2V93.2z"/>
		<g>
			<path fill="#7686C2" d="M239.7,89.3h-5.8c0,1.9,1.3,2.9,2.8,2.9c1.5,0,2.5-0.8,2.9-1.1v1.2c-0.5,0.3-1.4,0.9-3,0.9
				c-2.6,0-3.9-2-3.9-4.1c0-2.7,1.8-4,3.6-4c1.9,0,3.4,1.6,3.4,3.9V89.3z M238.5,88.5c-0.2-1.7-1.3-2.2-2.2-2.2c-1,0-2,0.6-2.3,2.2
				H238.5z"/>
		</g>
	</g>
	<g>
		<path fill="#B3BC35" d="M214.2,22.4c0.5,0,0.9,0.1,1.3,0.4c0.4,0.2,0.8,0.6,1,1c0.2,0.4,0.4,0.9,0.4,1.4c0,0.5-0.1,0.9-0.4,1.4
			c-0.2,0.4-0.6,0.8-1,1c-0.4,0.2-0.9,0.4-1.4,0.4c-0.5,0-0.9-0.1-1.4-0.4c-0.4-0.2-0.8-0.6-1-1c-0.2-0.4-0.4-0.9-0.4-1.4
			c0-0.5,0.1-0.9,0.4-1.4c0.2-0.4,0.6-0.8,1-1C213.3,22.5,213.7,22.4,214.2,22.4z M214.2,22.9c-0.4,0-0.7,0.1-1.1,0.3
			c-0.3,0.2-0.6,0.5-0.8,0.8c-0.2,0.4-0.3,0.7-0.3,1.1c0,0.4,0.1,0.7,0.3,1.1c0.2,0.3,0.5,0.6,0.8,0.8c0.3,0.2,0.7,0.3,1.1,0.3
			c0.4,0,0.7-0.1,1.1-0.3c0.3-0.2,0.6-0.5,0.8-0.8c0.2-0.3,0.3-0.7,0.3-1.1c0-0.4-0.1-0.8-0.3-1.1c-0.2-0.4-0.5-0.6-0.8-0.8
			C214.9,23,214.6,22.9,214.2,22.9z M213,26.6v-2.9h0.6c0.6,0,0.9,0,0.9,0c0.2,0,0.3,0.1,0.5,0.1c0.1,0.1,0.2,0.2,0.3,0.3
			c0.1,0.1,0.1,0.3,0.1,0.4c0,0.2-0.1,0.4-0.2,0.5c-0.1,0.1-0.3,0.2-0.6,0.3c0.1,0,0.2,0.1,0.2,0.1c0.1,0,0.1,0.1,0.2,0.2
			c0,0,0.1,0.1,0.2,0.4l0.3,0.6h-0.7l-0.2-0.5c-0.2-0.3-0.3-0.5-0.4-0.6c-0.1-0.1-0.2-0.1-0.4-0.1h-0.2v1.2H213z M213.6,24.9h0.2
			c0.3,0,0.6,0,0.6,0c0.1,0,0.1-0.1,0.2-0.1c0-0.1,0.1-0.1,0.1-0.2c0-0.1,0-0.2-0.1-0.2c0-0.1-0.1-0.1-0.2-0.1c-0.1,0-0.3,0-0.6,0
			h-0.2V24.9z"/>
	</g>
</g>
</svg>
