<?xml version="1.0" encoding="utf-8"?>
<!-- Generator: Adobe Illustrator 18.1.1, SVG Export Plug-In . SVG Version: 6.00 Build 0)  -->
<svg version="1.1" id="Layer_1" xmlns="http://www.w3.org/2000/svg" xmlns:xlink="http://www.w3.org/1999/xlink" x="0px" y="0px"
	 viewBox="2.3 734.8 169.7 58.9" enable-background="new 2.3 734.8 169.7 58.9" xml:space="preserve">
<g>
	<path fill="#010101" stroke="#FFFFFF" stroke-width="1.1758" stroke-miterlimit="10" d="M171.3,784.8c0,5.1-3.8,8.3-8.9,8.3H12.1
		c-5.1,0-9.3-4.2-9.3-9.3v-39.2c0-5.1,4.1-9.3,9.3-9.3h150.4c5.1,0,8.9,4.2,8.9,9.3V784.8z"/>
	<path fill="#010101" stroke="#FFFFFF" stroke-width="1.1758" stroke-miterlimit="10" d="M171.3,784.8c0,5.1-3.8,8.3-8.9,8.3H12.1
		c-5.1,0-9.3-4.2-9.3-9.3v-39.2c0-5.1,4.1-9.3,9.3-9.3h150.4c5.1,0,8.9,4.2,8.9,9.3V784.8z"/>
	<g>
		<g>
			<path fill="#FFFFFF" d="M118,776.8l-1.3,1.2c-0.3,0.2-0.6,0.3-0.9,0.5c-0.9,0.4-1.8,0.5-2.6,0.5c-0.8,0-2.2-0.1-3.5-1
				c-1.9-1.3-2.7-3.6-2.7-5.6c0-4.1,3.3-6.1,6.1-6.1c1,0,1.9,0.2,2.7,0.7c1.3,0.9,1.7,2,1.9,2.6l-6.2,2.5l-2,0.2
				c0.7,3.4,2.9,5.3,5.4,5.3C116.2,777.6,117.1,777.2,118,776.8C117.9,776.8,118.1,776.7,118,776.8z M114.2,770.1
				c0.5-0.2,0.8-0.3,0.8-0.7c0-1.1-1.2-2.3-2.6-2.3c-1.1,0-3,0.8-3,3.7c0,0.4,0.1,0.9,0.1,1.4L114.2,770.1z"/>
			<path fill="#FFFFFF" d="M105,776.6c0,1,0.2,1.2,1.1,1.3c0.5,0.1,0.9,0.1,1.4,0.1l-1,0.6h-4.7c0.6-0.8,0.7-0.9,0.7-1.4v-0.6
				l0-15.7h-2.1l2-1h3.8c-0.8,0.5-1.1,0.8-1.2,1.7L105,776.6z"/>
			<path fill="#FFFFFF" d="M97.8,767.6c0.6,0.5,1.9,1.6,1.9,3.6c0,2-1.1,2.9-2.2,3.8c-0.3,0.3-0.7,0.7-0.7,1.3
				c0,0.6,0.4,0.9,0.7,1.1l1,0.7c1.2,1,2.2,1.9,2.2,3.7c0,2.5-2.4,5-7,5c-3.8,0-5.7-1.8-5.7-3.8c0-1,0.5-2.3,2-3.2
				c1.6-1,3.9-1.1,5.1-1.2c-0.4-0.5-0.8-1-0.8-1.8c0-0.4,0.1-0.7,0.3-1c-0.3,0-0.6,0.1-0.8,0.1c-2.8,0-4.4-2.1-4.4-4.2
				c0-1.2,0.6-2.6,1.7-3.5c1.5-1.2,3.3-1.5,4.7-1.5h5.5l-1.7,1H97.8L97.8,767.6z M95.9,779.3c-0.2,0-0.3,0-0.6,0
				c-0.2,0-1.7,0.1-2.8,0.4c-0.6,0.2-2.3,0.8-2.3,2.7c0,1.9,1.8,3.2,4.7,3.2c2.5,0,3.9-1.2,3.9-2.9
				C98.8,781.5,97.9,780.7,95.9,779.3z M96.6,774.3c0.6-0.6,0.7-1.5,0.7-1.9c0-1.9-1.1-4.9-3.3-4.9c-0.7,0-1.4,0.3-1.9,0.9
				c-0.4,0.6-0.6,1.3-0.6,2c0,1.8,1,4.7,3.3,4.7C95.5,775,96.2,774.7,96.6,774.3z"/>
			<path fill="#FFFFFF" d="M81.4,778.9c-4.2,0-6.5-3.3-6.5-6.2c0-3.5,2.8-6.4,6.9-6.4c3.9,0,6.3,3,6.3,6.2
				C88.1,775.6,85.7,778.9,81.4,778.9z M84.7,776.8c0.6-0.8,0.8-1.9,0.8-2.9c0-2.3-1.1-6.8-4.4-6.8c-0.9,0-1.8,0.3-2.4,0.9
				c-1,0.9-1.2,2.1-1.2,3.2c0,2.6,1.3,6.9,4.5,6.9C83,778.1,84.1,777.6,84.7,776.8z"/>
			<path fill="#FFFFFF" d="M67.3,778.9c-4.2,0-6.5-3.3-6.5-6.2c0-3.5,2.8-6.4,6.9-6.4c3.9,0,6.3,3,6.3,6.2
				C74,775.6,71.6,778.9,67.3,778.9z M70.6,776.8c0.6-0.8,0.8-1.9,0.8-2.9c0-2.3-1.1-6.8-4.4-6.8c-0.9,0-1.7,0.3-2.4,0.9
				c-1,0.9-1.2,2.1-1.2,3.2c0,2.6,1.3,6.9,4.5,6.9C68.9,778.1,70,777.6,70.6,776.8z"/>
			<path fill="#FFFFFF" d="M59.1,778l-3.5,0.8c-1.4,0.2-2.7,0.4-4.1,0.4c-6.8,0-9.4-5-9.4-9c0-4.8,3.7-9.3,10-9.3
				c1.3,0,2.6,0.2,3.8,0.5c1.9,0.5,2.7,1.2,3.3,1.5l-2.1,2l-0.9,0.2l0.6-1c-0.8-0.8-2.4-2.3-5.3-2.3c-3.9,0-6.9,3-6.9,7.3
				c0,4.7,3.4,9,8.8,9c1.6,0,2.4-0.3,3.1-0.6v-4l-3.7,0.2l2-1.1h5.3l-0.6,0.6c-0.2,0.1-0.2,0.2-0.2,0.4c0,0.2,0,0.9,0,1.2L59.1,778
				L59.1,778L59.1,778z"/>
		</g>
		<g>
			<path fill="#FFFFFF" d="M125.6,776.9v6.7h-1.3v-17.1h1.3v2c0.9-1.3,2.5-2.3,4.3-2.3c3.3,0,5.6,2.5,5.6,6.5c0,4-2.2,6.5-5.6,6.5
				C128.2,779.2,126.6,778.3,125.6,776.9z M134,772.7c0-3-1.6-5.3-4.3-5.3c-1.7,0-3.4,1.4-4.1,2.5v5.5c0.7,1.2,2.4,2.6,4.1,2.6
				C132.5,778,134,775.7,134,772.7z"/>
			<path fill="#FFFFFF" d="M137.3,778.9v-17.1h1.3v17.1H137.3z"/>
			<path fill="#FFFFFF" d="M153.7,782.6c0.3,0.1,0.8,0.2,1.1,0.2c0.8,0,1.4-0.3,1.9-1.5l1-2.2l-5.3-12.5h1.5l4.5,10.8l4.5-10.8h1.5
				l-6.4,15.1c-0.7,1.6-1.7,2.3-3.2,2.3c-0.4,0-1-0.1-1.3-0.2L153.7,782.6z"/>
			<path fill="#FFFFFF" d="M149.8,778.9c-0.1-0.4-0.2-0.8-0.2-1.1c0-0.3-0.1-0.6-0.1-1c-0.5,0.7-1.1,1.2-1.9,1.7
				c-0.8,0.4-1.6,0.7-2.7,0.7c-1.3,0-2.3-0.3-3-1c-0.7-0.7-1.1-1.5-1.1-2.6s0.5-2,1.6-2.7c1-0.7,2.4-1,4.1-1h3.1v-1.5
				c0-0.9-0.3-1.6-0.9-2.1c-0.6-0.5-1.5-0.8-2.6-0.8c-1,0-1.8,0.2-2.5,0.7c-0.6,0.5-0.9,1-0.9,1.7h-1.4l0-0.1c0-0.9,0.4-1.8,1.3-2.5
				c0.9-0.7,2.1-1.1,3.6-1.1c1.5,0,2.6,0.4,3.5,1.1c0.9,0.7,1.3,1.7,1.3,3v6.1c0,0.4,0,0.9,0.1,1.3c0.1,0.4,0.1,0.8,0.3,1.2
				L149.8,778.9L149.8,778.9z M145,777.9c1.1,0,2-0.3,2.8-0.8c0.8-0.5,1.4-1.1,1.7-1.9v-2.4h-3.1c-1.2,0-2.2,0.3-3,0.8
				c-0.8,0.5-1.2,1.2-1.2,1.9c0,0.7,0.3,1.3,0.8,1.7C143.4,777.7,144.1,777.9,145,777.9z"/>
		</g>
	</g>
	<g>
		<g>
			<path fill="#FFFFFF" d="M42.1,747.7c0-2.6,2-4.3,4.4-4.3c1.6,0,2.7,0.8,3.4,1.7l-1.2,0.7c-0.5-0.6-1.2-1.1-2.2-1.1
				c-1.7,0-2.9,1.3-2.9,3c0,1.7,1.2,3,2.9,3c0.9,0,1.6-0.4,2-0.8v-1.3H46v-1.3h4v3.1c-0.8,0.9-2,1.5-3.4,1.5
				C44.1,752.1,42.1,750.4,42.1,747.7z"/>
			<path fill="#FFFFFF" d="M51.8,751.9v-8.4h5.7v1.3h-4.3v2.2h4.2v1.3h-4.2v2.3h4.3v1.3L51.8,751.9L51.8,751.9z"/>
			<path fill="#FFFFFF" d="M61.6,751.9v-7.1H59v-1.3h6.5v1.3H63v7.1H61.6z"/>
			<path fill="#FFFFFF" d="M70.7,751.9v-8.4h1.5v8.4H70.7z"/>
			<path fill="#FFFFFF" d="M76.2,751.9v-7.1h-2.5v-1.3h6.5v1.3h-2.5v7.1H76.2z"/>
			<path fill="#FFFFFF" d="M85,747.7c0-2.5,1.8-4.3,4.3-4.3c2.5,0,4.3,1.8,4.3,4.3s-1.8,4.3-4.3,4.3C86.7,752.1,85,750.2,85,747.7z
				 M92,747.7c0-1.7-1.1-3-2.8-3c-1.7,0-2.8,1.3-2.8,3c0,1.7,1.1,3,2.8,3C90.9,750.8,92,749.4,92,747.7z"/>
			<path fill="#FFFFFF" d="M101.1,751.9l-4.4-6v6h-1.5v-8.4h1.5l4.3,5.8v-5.8h1.5v8.4H101.1z"/>
		</g>
	</g>
	<g>
		<polygon fill="none" points="24.6,772 28.9,767.7 28.9,767.7 24.6,772 10.9,758.3 10.9,758.3 24.6,772 10.9,785.7 10.9,785.7 
			24.6,772 28.9,776.3 28.9,776.3 		"/>
		
			<linearGradient id="SVGID_1_" gradientUnits="userSpaceOnUse" x1="701.8604" y1="9.4159" x2="683.7723" y2="-1.9043" gradientTransform="matrix(0.7071 0.7071 -0.7071 0.7071 -467.9246 267.9718)">
			<stop  offset="0" style="stop-color:#D7E69D"/>
			<stop  offset="0.4456" style="stop-color:#94C4AA"/>
			<stop  offset="1" style="stop-color:#01A4B6"/>
		</linearGradient>
		<path fill="url(#SVGID_1_)" d="M28.9,767.7l-16.7-9.2c-0.5-0.3-0.9-0.3-1.3-0.2L24.6,772L28.9,767.7z"/>
		
			<linearGradient id="SVGID_2_" gradientUnits="userSpaceOnUse" x1="691.3455" y1="-0.2542" x2="714.7962" y2="5.8761" gradientTransform="matrix(0.7071 0.7071 -0.7071 0.7071 -467.9246 267.9718)">
			<stop  offset="0" style="stop-color:#ED277B"/>
			<stop  offset="1.920000e-02" style="stop-color:#EE2F7C"/>
			<stop  offset="0.7039" style="stop-color:#F7BD81"/>
			<stop  offset="1" style="stop-color:#FEEB74"/>
		</linearGradient>
		<path fill="url(#SVGID_2_)" d="M28.9,776.3l5.7-3.1c1.2-0.6,1.2-1.7,0-2.3l-5.7-3.2l-4.3,4.3L28.9,776.3z"/>
		
			<linearGradient id="SVGID_3_" gradientUnits="userSpaceOnUse" x1="704.4354" y1="18.0022" x2="679.0045" y2="3.0401" gradientTransform="matrix(0.7071 0.7071 -0.7071 0.7071 -467.9246 267.9718)">
			<stop  offset="0" style="stop-color:#89CFBD"/>
			<stop  offset="9.070000e-02" style="stop-color:#7DBEBB"/>
			<stop  offset="0.5396" style="stop-color:#457CAC"/>
			<stop  offset="0.8523" style="stop-color:#1C5AA2"/>
			<stop  offset="1" style="stop-color:#084D9F"/>
		</linearGradient>
		<path fill="url(#SVGID_3_)" d="M10.9,758.3c-0.5,0.2-0.8,0.7-0.8,1.5l0,24.5c0,0.8,0.3,1.3,0.8,1.4L24.6,772L10.9,758.3z"/>
		
			<linearGradient id="SVGID_4_" gradientUnits="userSpaceOnUse" x1="713.6696" y1="6.1208" x2="698.0095" y2="26.7522" gradientTransform="matrix(0.7071 0.7071 -0.7071 0.7071 -467.9246 267.9718)">
			<stop  offset="0" style="stop-color:#F04A2B"/>
			<stop  offset="0.4704" style="stop-color:#B54F6B"/>
			<stop  offset="0.8353" style="stop-color:#8B5191"/>
			<stop  offset="1" style="stop-color:#7851A1"/>
		</linearGradient>
		<path fill="url(#SVGID_4_)" d="M10.9,785.7c0.4,0.1,0.8,0.1,1.3-0.2l16.7-9.2l-4.3-4.3L10.9,785.7z"/>
	</g>
</g>
</svg>
