<svg width="220" height="100" viewBox="0 0 220 100" xmlns="http://www.w3.org/2000/svg"><title>amazon_kindle</title><g id="Page-1" fill="none" fill-rule="evenodd"><g id="amazon_kindle"><path id="Rectangle-1" stroke="#FFF" d="M0 0h220v100H0z"/><g id="Group"><path d="M75.79 65.183c-7.098 5.245-17.396 7.995-26.222 7.995-12.408 0-23.6-4.605-32.043-12.216-.64-.575-.064-1.407.703-.96 9.146 5.31 20.403 8.507 32.108 8.507 7.867 0 16.5-1.664 24.496-4.99 1.15-.51 2.11.768.96 1.663z" id="Shape" fill="#F90"/><path d="M78.733 61.794c-.895-1.152-6.012-.576-8.314-.256-.705.064-.833-.512-.193-.96C74.32 57.7 80.972 58.532 81.74 59.49c.767.96-.192 7.612-4.03 10.81-.576.512-1.15.256-.895-.448.895-2.11 2.814-6.907 1.918-8.058z" id="Shape" fill="#F90"/><path d="M70.61 40.43v-2.75c0-.447.32-.702.704-.702h12.408c.384 0 .704.32.704.703v2.368c0 .383-.32.895-.96 1.727l-6.46 9.21c2.367-.064 4.925.32 7.1 1.535.512.255.64.703.64 1.087v2.942c0 .383-.448.894-.896.64-3.837-1.984-8.89-2.24-13.11 0-.45.254-.897-.257-.897-.64v-2.815c0-.448 0-1.215.448-1.92l7.484-10.68H71.25c-.32 0-.64-.32-.64-.704zM25.264 57.764H21.49c-.384 0-.64-.32-.703-.64v-19.38c0-.383.32-.702.703-.702h3.518c.384 0 .64.32.703.64v2.557h.065c.896-2.43 2.623-3.582 4.99-3.582 2.366 0 3.837 1.15 4.924 3.58.894-2.43 3.005-3.58 5.244-3.58 1.6 0 3.326.64 4.35 2.11 1.214 1.663.958 4.03.958 6.077V57.06c0 .384-.32.704-.703.704h-3.775c-.384 0-.703-.32-.703-.703V46.764c0-.83.064-2.878-.128-3.645-.256-1.28-1.152-1.663-2.24-1.663-.894 0-1.854.64-2.237 1.6-.384.958-.384 2.62-.384 3.708V57.06c0 .384-.32.704-.704.704h-3.774c-.384 0-.704-.32-.704-.703V46.764c0-2.174.384-5.372-2.302-5.372-2.687 0-2.623 3.135-2.623 5.373V57.06c.064.384-.256.704-.703.704zM95.17 36.594c5.63 0 8.635 4.797 8.635 10.937 0 5.95-3.326 10.618-8.634 10.618-5.5 0-8.506-4.797-8.506-10.81 0-6.075 3.006-10.744 8.507-10.744zm0 3.965c-2.813 0-2.94 3.773-2.94 6.14 0 2.366-.065 7.42 2.94 7.42 2.943 0 3.07-4.095 3.07-6.59 0-1.662-.063-3.58-.575-5.116-.447-1.343-1.28-1.855-2.494-1.855zM111.097 57.764h-3.774c-.384 0-.704-.32-.704-.703V37.618c0-.384.32-.64.703-.64h3.518c.32 0 .576.256.704.512v2.94h.064c1.088-2.685 2.56-3.9 5.18-3.9 1.664 0 3.327.64 4.414 2.302.96 1.6.96 4.222.96 6.076v12.217c-.064.32-.32.64-.704.64h-3.774c-.32 0-.64-.257-.703-.64V46.57c0-2.11.257-5.243-2.366-5.243-.895 0-1.79.64-2.174 1.535-.512 1.215-.576 2.366-.576 3.645V57.06c-.064.384-.384.704-.767.704zM60.697 48.49c0 1.47.064 2.686-.704 4.03-.575 1.087-1.535 1.726-2.622 1.726-1.47 0-2.3-1.087-2.3-2.75 0-3.198 2.877-3.837 5.627-3.837v.83zm3.838 9.21c-.256.256-.64.256-.896.064-1.28-1.023-1.472-1.535-2.175-2.494-2.047 2.11-3.518 2.75-6.205 2.75-3.197 0-5.628-1.983-5.628-5.884 0-3.07 1.663-5.18 4.03-6.204 2.046-.896 4.924-1.087 7.1-1.28v-.51c0-.896.063-1.984-.45-2.75-.446-.705-1.342-.96-2.11-.96-1.47 0-2.75.767-3.07 2.238-.063.32-.32.703-.64.703l-3.71-.383c-.318-.064-.638-.32-.574-.768.83-4.477 4.86-5.82 8.442-5.82 1.855 0 4.222.512 5.693 1.855 1.854 1.727 1.663 4.03 1.663 6.524v5.885c0 1.79.767 2.558 1.407 3.518.256.32.32.767 0 1.023-.768.64-2.11 1.79-2.878 2.494zM11.13 48.49c0 1.47.063 2.686-.705 4.03-.575 1.087-1.535 1.726-2.622 1.726-1.47 0-2.303-1.087-2.303-2.75 0-3.198 2.88-3.837 5.63-3.837v.83zm3.836 9.21c-.255.256-.64.256-.895.064-1.278-1.023-1.47-1.535-2.174-2.494-2.046 2.11-3.517 2.75-6.204 2.75-3.198 0-5.628-1.983-5.628-5.884 0-3.07 1.663-5.18 4.03-6.204 2.046-.896 4.924-1.087 7.1-1.28v-.51c0-.896.063-1.984-.45-2.75-.51-.705-1.406-.96-2.174-.96-1.47 0-2.75.767-3.07 2.238-.063.32-.32.703-.64.703l-3.645-.383c-.32-.064-.64-.32-.575-.768.83-4.477 4.86-5.82 8.442-5.82 1.855 0 4.22.512 5.693 1.855 1.854 1.727 1.662 4.03 1.662 6.524v5.885c0 1.79.768 2.558 1.408 3.518.255.32.32.767 0 1.023-.768.64-2.11 1.79-2.88 2.494z" id="Shape" fill="#000"/><path d="M139.686 57.764l-8.826-10.68h-.064v10.68h-3.198V27h3.198v17.46h.064l7.547-7.227h4.093l-9.018 8.38 10.17 12.15h-3.966zM147.425 32.884c-1.215 0-2.238-1.023-2.238-2.238 0-1.216 1.023-2.24 2.238-2.24s2.24 1.024 2.24 2.24c-.065 1.28-1.025 2.238-2.24 2.238zm-1.6 24.88v-20.53h3.2v20.53h-3.2zM166.805 57.764V45.1c0-2.558-.448-5.436-3.582-5.436-2.494 0-4.797 1.79-6.396 3.134v14.966h-3.198v-20.53h2.622l.447 2.494c2.238-1.727 4.476-3.006 7.355-3.006 2.942 0 5.884 2.11 5.884 7.227v13.814h-3.135zM183.946 58.148c-5.756 0-10.553-3.326-10.553-10.425 0-6.396 4.605-11.065 10.617-11.065 1.47 0 2.494.128 3.326.32V27h3.198v29.677c-1.28.767-3.646 1.47-6.588 1.47zm3.39-18.164c-.832-.32-1.535-.512-3.198-.512-4.03 0-7.547 3.198-7.547 8.06 0 4.668 2.56 7.93 7.867 7.93 1.024 0 2.175-.192 2.815-.512V39.984h.064zM198.784 58.148c-2.494 0-3.58-1.6-3.58-3.774V27h3.197v25.967c0 1.983.448 2.367 1.663 2.367.192 0 .576 0 1.088-.128l.385 2.302c-.96.448-1.727.64-2.75.64zM206.65 48.042c0 3.902 2.24 7.42 6.653 7.42 1.855 0 3.774-.768 4.99-1.535l1.022 2.238c-1.535 1.024-4.093 1.983-6.396 1.983-6.525 0-9.66-5.245-9.66-11.13 0-5.947 3.39-10.36 8.316-10.36 5.31 0 8.187 4.22 8.187 10.617v.767H206.65zm4.99-8.698c-3.006 0-4.925 2.686-4.925 5.948h9.658c0-2.814-1.663-5.948-4.733-5.948z" id="Shape" fill="#F90"/></g></g></g></svg>