<svg width="299" height="108" viewBox="0 0 299 108" xmlns="http://www.w3.org/2000/svg"><title>apple_ibooks</title><g id="Page-1" fill="none" fill-rule="evenodd"><g id="apple_ibooks"><g id="Group"><path d="M281.153.003H17.745c-.677 0-1.355 0-2.033.002-.573.003-1.133.01-1.703.024-1.247.04-2.503.104-3.735.334-1.25.22-2.41.59-3.536 1.168-1.12.568-2.133 1.302-3.03 2.183-.88.897-1.613 1.907-2.183 3.03C.95 7.867.58 9.03.362 10.28.13 11.512.067 12.77.024 14.014c-.013.57-.02 1.128-.02 1.7C0 16.395 0 17.07 0 17.75V89.41c0 .664 0 1.355.003 2.025.002.565.008 1.14.02 1.71.044 1.263.108 2.503.34 3.722.218 1.267.588 2.426 1.164 3.562.568 1.092 1.3 2.14 2.183 3.002.897.894 1.907 1.642 3.03 2.207 1.122.58 2.284.92 3.535 1.172 1.232.214 2.488.28 3.734.308.57.01 1.13.016 1.702.02.678.007 1.356.007 2.033.007h263.408c.675 0 1.355 0 2.035-.006.565-.004 1.14-.01 1.717-.02 1.24-.027 2.497-.094 3.73-.308 1.236-.252 2.4-.592 3.537-1.173 1.125-.566 2.135-1.314 3.02-2.208.877-.863 1.625-1.91 2.19-3.003.58-1.137.948-2.296 1.168-3.563.22-1.22.297-2.46.33-3.72.02-.57.026-1.147.026-1.712.005-.67.005-1.36.005-2.025V17.748c0-.68 0-1.355-.004-2.036 0-.57-.005-1.127-.027-1.7-.033-1.246-.11-2.502-.33-3.734-.22-1.25-.587-2.414-1.168-3.536-.565-1.122-1.313-2.132-2.19-3.03-.885-.88-1.895-1.615-3.02-2.183-1.14-.576-2.3-.95-3.536-1.168-1.234-.23-2.49-.295-3.73-.335-.577-.014-1.153-.02-1.718-.022-.68-.002-1.36-.002-2.035-.002z" id="Shape" fill="#A6A6A6"/><path d="M281.153 2.64l2.014.004c.554.002 1.114.008 1.658.035 1.015.023 2.19.07 3.337.288 1.058.19 1.948.482 2.815.916.858.445 1.648 1.018 2.344 1.71.692.69 1.268 1.477 1.713 2.345.434.862.726 1.75.916 2.812.202 1.133.256 2.317.28 3.32.016.555.022 1.113.022 1.675.005.67.005 1.33.005 2.004v71.66c0 .658 0 1.344-.005 2.008 0 .555-.006 1.115-.022 1.664-.027 1.01-.078 2.19-.28 3.332-.19 1.037-.483 1.942-.917 2.82-.445.852-1.02 1.642-1.712 2.344-.695.68-1.485 1.25-2.348 1.68-.862.466-1.752.742-2.804.937-1.163.198-2.392.28-3.332.297-.55.01-1.104.016-1.67.022-.67.005-1.344.005-2.013.005H17.727c-.667 0-1.332 0-2.004-.006-.544-.006-1.104-.01-1.653-.022-.934-.02-2.17-.1-3.324-.297-1.058-.193-1.947-.47-2.815-.937-.864-.43-1.652-1-2.343-1.68-.688-.702-1.26-1.492-1.708-2.344-.433-.878-.727-1.783-.915-2.825-.22-1.142-.265-2.318-.29-3.328-.026-.555-.03-1.114-.034-1.664V15.745c.004-.557.01-1.114.036-1.67.024-1.003.07-2.184.29-3.325.187-1.056.48-1.948.913-2.813.446-.866 1.022-1.653 1.71-2.344.688-.686 1.476-1.262 2.34-1.71.866-.43 1.756-.722 2.814-.913 1.143-.22 2.322-.267 3.326-.29.557-.028 1.115-.034 1.67-.036l2.005-.003h263.408" id="Shape" fill="#000"/><g id="Shape" fill="#FFF"><path d="M80.7 52.995c-.08-8.633 7.068-12.833 7.394-13.03-4.047-5.9-10.32-6.706-12.524-6.77-5.27-.554-10.38 3.153-13.064 3.153-2.737 0-6.87-3.1-11.325-3.008-5.73.088-11.093 3.407-14.034 8.56-6.07 10.508-1.543 25.95 4.272 34.44 2.91 4.16 6.308 8.805 10.757 8.645 4.353-.183 5.98-2.778 11.23-2.778 5.206 0 6.732 2.778 11.27 2.673 4.67-.078 7.612-4.18 10.42-8.376 3.36-4.77 4.71-9.463 4.765-9.704-.11-.037-9.073-3.46-9.16-13.805zM72.128 27.608c2.34-2.928 3.942-6.91 3.498-10.953-3.39.15-7.626 2.344-10.066 5.207-2.16 2.523-4.088 6.66-3.59 10.548 3.807.284 7.715-1.92 10.158-4.802z"/></g><g id="Shape" fill="#FFF"><path d="M132.53 35.07c-1.63.616-3.352.924-5.166.924-2.694 0-4.8-.73-6.316-2.196-1.564-1.514-2.346-3.595-2.346-6.24 0-2.63.836-4.745 2.51-6.34 1.674-1.6 3.873-2.4 6.602-2.4 1.747 0 3.153.26 4.22.775l-.6 2.197c-1.035-.466-2.256-.7-3.67-.7-1.88 0-3.38.542-4.495 1.624-1.15 1.133-1.723 2.697-1.723 4.693 0 1.995.55 3.57 1.647 4.717 1.047 1.098 2.48 1.647 4.294 1.647 1.13 0 1.947-.114 2.445-.347v-4.57h-3.07v-2.12h5.666v8.337zM146.588 29.18c0 .482-.035.892-.1 1.224H138.4c.035 1.197.426 2.113 1.173 2.746.683.565 1.564.85 2.647.85 1.197 0 2.287-.194 3.27-.575l.426 1.873c-1.15.5-2.507.75-4.07.75-1.882 0-3.358-.555-4.432-1.66-1.07-1.107-1.61-2.59-1.61-4.458 0-1.83.5-3.354 1.498-4.57 1.05-1.296 2.46-1.947 4.243-1.947 1.746 0 3.07.648 3.97 1.947.714 1.034 1.073 2.307 1.073 3.82zm-2.57-.7c.015-.797-.16-1.488-.526-2.07-.466-.75-1.184-1.125-2.146-1.125-.884 0-1.6.367-2.148 1.1-.45.583-.715 1.282-.798 2.096h5.617zM156.223 25.71h-2.97v5.89c0 1.5.524 2.25 1.574 2.25.483 0 .882-.044 1.198-.125l.072 2.047c-.53.2-1.23.3-2.095.3-1.063 0-1.896-.324-2.5-.975-.596-.648-.896-1.74-.896-3.27V25.71h-1.773v-2.02h1.773v-2.224l2.644-.798v3.02h2.97v2.023h.003zM169.455 20.068c0 .482-.16.873-.477 1.173-.313.3-.723.45-1.224.45-.447 0-.828-.155-1.136-.463-.308-.308-.46-.693-.46-1.16 0-.465.158-.85.476-1.148.314-.3.708-.45 1.174-.45.466 0 .857.15 1.173.45.314.298.475.682.475 1.148zm-.303 15.752h-2.697V23.69h2.697v12.13zM179.66 25.71h-2.968v5.89c0 1.5.525 2.25 1.573 2.25.482 0 .884-.044 1.197-.125l.072 2.047c-.527.2-1.23.3-2.092.3-1.066 0-1.9-.324-2.5-.975-.6-.648-.896-1.74-.896-3.27V25.71h-1.773v-2.02h1.773v-2.224l2.644-.798v3.02h2.967v2.023h.003zM200.98 29.654c0 1.864-.532 3.396-1.598 4.594-1.117 1.232-2.598 1.848-4.443 1.848-1.783 0-3.2-.592-4.258-1.773-1.06-1.18-1.585-2.673-1.585-4.468 0-1.88.543-3.42 1.634-4.618 1.088-1.197 2.56-1.797 4.407-1.797 1.78 0 3.21.592 4.296 1.773 1.03 1.146 1.546 2.628 1.546 4.44zm-2.798.088c0-1.116-.24-2.075-.723-2.88-.57-.966-1.375-1.45-2.422-1.45-1.082 0-1.907.484-2.473 1.45-.482.802-.726 1.78-.726 2.93 0 1.118.243 2.077.725 2.878.584.967 1.4 1.452 2.446 1.452 1.035 0 1.84-.493 2.422-1.476.5-.817.75-1.787.75-2.904zM215.084 35.82h-2.695v-6.948c0-2.143-.818-3.214-2.45-3.214-.797 0-1.445.294-1.946.886-.5.59-.748 1.283-.748 2.08v7.196h-2.697v-8.662c0-1.066-.036-2.224-.1-3.47h2.37l.126 1.897h.075c.317-.59.784-1.076 1.397-1.465.73-.452 1.548-.68 2.448-.68 1.13 0 2.07.367 2.82 1.098.933.897 1.396 2.237 1.396 4.018v7.264h.004z"/></g><g id="Shape" fill="#FFF"><path d="M126.014 51.002c0 1.023-.334 1.85-1.004 2.486-.67.635-1.535.95-2.593.95-.95 0-1.754-.326-2.408-.977-.654-.65-.98-1.47-.98-2.458 0-.986.336-1.797 1.006-2.432.67-.635 1.497-.95 2.486-.95.985 0 1.816.315 2.485.95.673.632 1.007 1.444 1.007 2.432zm-.634 33.38h-5.714v-25.71h5.714v25.71zM157.013 74.17c0 2.894-1.074 5.29-3.228 7.196-2.466 2.223-6.7 3.332-12.693 3.332-2.75 0-5.255-.142-7.513-.423V49.202c2.39-.493 5.348-.74 8.865-.74 4.363 0 7.66.794 9.897 2.382 2.234 1.586 3.35 3.774 3.35 6.56 0 1.693-.514 3.235-1.545 4.628-1.034 1.396-2.475 2.427-4.326 3.097v.157c2.01.495 3.668 1.446 4.973 2.855 1.48 1.658 2.22 3.667 2.22 6.03zm-7.034-16.188c0-3.49-2.318-5.236-6.95-5.236-1.614 0-2.86.107-3.738.318v10.474h3.525c2.21 0 3.956-.507 5.24-1.533 1.28-1.02 1.922-2.362 1.922-4.023zm1.057 16.03c0-2.115-.825-3.72-2.475-4.815-1.473-.983-3.44-1.48-5.898-1.48h-3.37V80.15c.702.142 1.86.21 3.475.21 2.42 0 4.335-.475 5.74-1.426 1.684-1.093 2.527-2.735 2.527-4.92zM187.168 71.316c0 3.95-1.13 7.195-3.388 9.734-2.363 2.61-5.502 3.916-9.418 3.916-3.774 0-6.777-1.254-9.016-3.755-2.242-2.507-3.362-5.66-3.362-9.468 0-3.986 1.155-7.248 3.467-9.787 2.307-2.537 5.42-3.81 9.335-3.81 3.774 0 6.806 1.252 9.1 3.756 2.19 2.433 3.283 5.57 3.283 9.416zm-5.925.182c0-2.37-.51-4.403-1.535-6.1-1.197-2.05-2.91-3.074-5.132-3.074-2.29 0-4.04 1.026-5.236 3.075-1.023 1.697-1.532 3.765-1.532 6.205 0 2.37.51 4.404 1.532 6.102 1.235 2.052 2.96 3.075 5.185 3.075 2.186 0 3.898-1.045 5.132-3.13 1.056-1.732 1.586-3.783 1.586-6.154zM216.9 71.316c0 3.95-1.13 7.195-3.388 9.734-2.363 2.61-5.502 3.916-9.418 3.916-3.772 0-6.78-1.254-9.02-3.755-2.238-2.507-3.358-5.66-3.358-9.468 0-3.986 1.157-7.248 3.466-9.787 2.31-2.537 5.422-3.81 9.335-3.81 3.774 0 6.806 1.252 9.1 3.756 2.187 2.433 3.283 5.57 3.283 9.416zm-5.925.182c0-2.37-.512-4.403-1.535-6.1-1.197-2.05-2.91-3.074-5.132-3.074-2.29 0-4.04 1.026-5.236 3.075-1.024 1.697-1.533 3.765-1.533 6.205 0 2.37.508 4.404 1.532 6.102 1.234 2.052 2.962 3.075 5.185 3.075 2.186 0 3.897-1.045 5.132-3.13 1.052-1.732 1.585-3.783 1.585-6.154zM245.78 84.382h-6.98l-7.776-11.743-2.173 2.64v9.1h-5.712V46.873h5.713v23.274h.11c.703-1.125 1.39-2.113 2.064-2.96l6.613-8.517h6.825l-9.47 10.58 10.788 15.132zM265.617 76.992c0 2.397-.88 4.31-2.644 5.753-1.765 1.444-4.197 2.165-7.3 2.165-2.932 0-5.415-.582-7.46-1.744l1.215-4.232c1.974 1.197 4.074 1.8 6.297 1.8 2.928 0 4.39-1.077 4.39-3.228 0-.95-.316-1.736-.95-2.354-.633-.616-1.763-1.224-3.386-1.827-4.587-1.693-6.877-4.16-6.877-7.406 0-2.222.846-4.075 2.54-5.554 1.692-1.484 3.93-2.223 6.717-2.223 2.54 0 4.71.517 6.51 1.554l-1.217 4.106c-1.658-.99-3.405-1.48-5.24-1.48-1.197 0-2.134.28-2.8.84-.673.565-1.008 1.285-1.008 2.167 0 .88.353 1.6 1.06 2.164.6.525 1.763 1.106 3.493 1.738 4.436 1.693 6.66 4.278 6.66 7.76z"/></g></g></g></g></svg>