<svg id="Layer_1" xmlns="http://www.w3.org/2000/svg" viewBox="0 0 239.7 97.2"><g fill="#B3BC35"><path d="M165.9 69.3h9.4V0h-9.4v69.3zM187.7 45.9L208 22.6h-11.4L175.3 46l23 23.3h12.5l-23.1-23.4z"/></g><path fill="#7686C2" d="M134.2 21.6c-13.4 0-24.3 10.9-24.3 24.3s10.9 24.3 24.3 24.3 24.3-10.9 24.3-24.3c-.1-13.4-10.9-24.3-24.3-24.3m0 39.1c-8.2 0-14.8-6.6-14.8-14.8 0-8.2 6.6-14.8 14.8-14.8 8.2 0 14.8 6.6 14.8 14.8 0 8.2-6.7 14.8-14.8 14.8"/><path fill="#1A4822" d="M80.4 21.6c-13.4 0-24.3 10.9-24.3 24.3S67 70.2 80.4 70.2s24.3-10.9 24.3-24.3-10.8-24.3-24.3-24.3M65.6 45.9c0-8.2 6.6-14.8 14.8-14.8 8.2 0 14.8 6.6 14.8 14.8 0 8.2-6.6 14.8-14.8 14.8-8.2 0-14.8-6.6-14.8-14.8"/><path fill="#429644" d="M39.1 45.6c0-8.2-6.6-14.4-14.8-14.4-8 0-14.8 6.4-14.8 14.4v23.7H0V45.2c0-12.4 11.2-23.4 24.3-23.4 13.1 0 24.3 11 24.3 23.4v24.1h-9.5V45.6z"/><path fill="#7686C2" d="M112.4 81.3h1.2v4.9c.4-.3 1.2-1 2.5-1 2.2 0 3.4 1.9 3.4 3.9 0 2.6-1.6 4.2-4.2 4.2-1 0-2-.2-2.9-.6V81.3zm1.2 10.6c.9.3 1.6.3 1.8.3 1.6 0 2.9-1.3 2.9-3.1 0-1.7-1.1-2.9-2.4-2.9-.6 0-1.4.3-2.2 1.1v4.6zM121.8 97.2h-1.3l2.7-5.6-3.2-6.2h1.3l2.5 4.9 2.3-4.9h1.3l-5.6 11.8zM136.4 81.3c1.8 0 3.8.7 3.8 3.1 0 1.7-1.3 2.4-1.8 2.6 2.3.4 2.8 2 2.8 3 0 1.4-1 3.2-3.5 3.2h-4.3V81.3h3zm-1.7 1.1v4.1h1.3c2 0 2.8-.8 2.8-2.1 0-1.5-.9-2-2.8-2h-1.3zm0 5.3V92h2.1c2.6 0 3-1.1 3-2.1s-.7-2.1-3-2.1h-2.1zM149.1 92.6c-1 .7-1.3.7-1.6.7-.6 0-.8-.5-.8-.9-1 .7-1.6.9-2.3.9-1.1 0-2-.8-2-2 0-1.3 1-2.3 4.3-2.9v-.7c0-.5-.1-1.5-1.6-1.5-1 0-1.8.5-2.4 1.1V86c.4-.3 1.3-1 2.5-1 2.2 0 2.6 1.6 2.6 2.5v4.3c0 .3 0 .4.2.4s.5-.2 1-.6v1zm-2.4-3.4c-2 .4-3.1 1-3.1 2 0 .9.9 1.2 1.3 1.2.8 0 1.5-.6 1.8-.8v-2.4zM151.7 85.3V87c.2-.3.7-1 1.3-1.4.2-.1.7-.4 1.2-.4.7 0 1.6.7 1.9.9l-.6 1c-.3-.2-.8-.7-1.5-.7s-1.5.6-1.9 1.5c-.3.6-.3 1.5-.3 1.9v3.4h-1.2v-7.8h1.1zM158.4 85.3v1.2c.6-.8 1.3-1.3 2.5-1.3 1.8 0 2.8 1.3 2.8 3.3v4.7h-1.2v-4.6c0-1.3-.5-2.3-1.9-2.3-.5 0-1.4.1-2.2 1.4v5.5h-1.2v-7.8h1.2zM172.4 89.3h-5.8c0 1.9 1.3 2.9 2.8 2.9 1.5 0 2.5-.8 2.9-1.1v1.2c-.5.3-1.4.9-3 .9-2.6 0-3.9-2-3.9-4.1 0-2.7 1.8-4 3.6-4 1.9 0 3.4 1.6 3.4 3.9v.3zm-1.3-.8c-.2-1.7-1.3-2.2-2.2-2.2-1 0-2 .6-2.3 2.2h4.5zM178.5 87.1c-.8-.5-1.4-.8-2.2-.8-.8 0-1.3.5-1.3 1 0 .6.5.9 2.4 1.9.4.2 1.4.8 1.4 2 0 .8-.6 2.2-2.6 2.2-.9 0-1.7-.3-2.5-.7v-1.2c1.3.8 2.1.9 2.5.9.6 0 1.3-.4 1.3-1 0-.7-.7-1.1-1.7-1.6s-2.1-1-2.1-2.3c0-1 .8-2.1 2.5-2.1 1.1 0 1.8.4 2.2.7v1zM194.6 93.2h-1.7l-1.6-1.7c-.5.5-1.8 1.9-3.9 1.9-1.5 0-3-1.1-3-2.8 0-1.5 1.2-2.7 2.9-3.6-1.1-1.2-1.4-1.9-1.4-2.8 0-1.5 1.2-2.6 2.9-2.6 1.8 0 2.8 1.3 2.8 2.5 0 1.7-1.5 2.6-2.3 3.1l2.2 2.4c.4-.5.8-1.1 1.3-2.3h1.3c-.4 1.1-1 2.2-1.8 3.3l2.3 2.6zm-6.6-5.4c-2.2 1.4-2.3 1.9-2.3 2.6 0 .9.7 1.7 1.8 1.7 1.3 0 2.1-.8 2.9-1.6l-2.4-2.7zm2.2-3.7c0-.7-.5-1.5-1.6-1.5-1.2 0-1.6.8-1.6 1.4 0 .6.4 1.4 1.3 2.2.9-.3 1.9-1 1.9-2.1zM210.4 93.2h-1.1l-8.5-9.8v9.8h-1.3V81.3h1.1l8.5 9.8v-9.8h1.3v11.9zM220.2 89.2c0 2.2-1.8 4.1-4.1 4.1s-4.1-1.8-4.1-4.1c0-2.2 1.8-4.1 4.1-4.1s4.1 1.9 4.1 4.1zm-6.9 0c0 1.7 1.2 3 2.8 3 1.6 0 2.8-1.4 2.8-3 0-1.7-1.2-3-2.8-3-1.6.1-2.8 1.4-2.8 3zM221.5 81.3h1.2v4.9c.4-.3 1.2-1 2.5-1 2.2 0 3.4 1.9 3.4 3.9 0 2.6-1.6 4.2-4.2 4.2-1 0-2-.2-2.9-.6V81.3zm1.2 10.6c.9.3 1.6.3 1.8.3 1.6 0 2.9-1.3 2.9-3.1 0-1.7-1.1-2.9-2.4-2.9-.6 0-1.4.3-2.2 1.1v4.6zM231.2 93.2H230V81.3h1.2v11.9zM239.7 89.3h-5.8c0 1.9 1.3 2.9 2.8 2.9 1.5 0 2.5-.8 2.9-1.1v1.2c-.5.3-1.4.9-3 .9-2.6 0-3.9-2-3.9-4.1 0-2.7 1.8-4 3.6-4 1.9 0 3.4 1.6 3.4 3.9v.3zm-1.2-.8c-.2-1.7-1.3-2.2-2.2-2.2-1 0-2 .6-2.3 2.2h4.5z"/><g><path fill="#B3BC35" d="M214.2 22.4c.5 0 .9.1 1.3.4.4.2.8.6 1 1 .2.4.4.9.4 1.4 0 .5-.1.9-.4 1.4-.2.4-.6.8-1 1-.4.2-.9.4-1.4.4-.5 0-.9-.1-1.4-.4-.4-.2-.8-.6-1-1-.2-.4-.4-.9-.4-1.4 0-.5.1-.9.4-1.4.2-.4.6-.8 1-1 .6-.3 1-.4 1.5-.4zm0 .5c-.4 0-.7.1-1.1.3-.3.2-.6.5-.8.8-.2.4-.3.7-.3 1.1 0 .4.1.7.3 1.1.2.3.5.6.8.8.3.2.7.3 1.1.3.4 0 .7-.1 1.1-.3.3-.2.6-.5.8-.8.2-.3.3-.7.3-1.1 0-.4-.1-.8-.3-1.1-.2-.4-.5-.6-.8-.8-.4-.2-.7-.3-1.1-.3zm-1.2 3.7v-2.9h1.5c.2 0 .3.1.5.1l.3.3c.1.1.1.3.1.4 0 .2-.1.4-.2.5-.1.1-.3.2-.6.3.1 0 .2.1.2.1.1 0 .1.1.2.2 0 0 .1.1.2.4l.3.6h-.7l-.2-.5c-.2-.3-.3-.5-.4-.6-.1-.1-.2-.1-.4-.1h-.2v1.2h-.6zm.6-1.7h.8c.1 0 .1-.1.2-.1 0-.1.1-.1.1-.2s0-.2-.1-.2c0-.1-.1-.1-.2-.1h-.8v.6z"/></g></svg>