<svg id="Layer_1" xmlns="http://www.w3.org/2000/svg" viewBox="2.3 734.8 169.7 58.9"><path fill="#010101" stroke="#FFF" stroke-width="1.176" stroke-miterlimit="10" d="M171.3 784.8c0 5.1-3.8 8.3-8.9 8.3H12.1c-5.1 0-9.3-4.2-9.3-9.3v-39.2c0-5.1 4.1-9.3 9.3-9.3h150.4c5.1 0 8.9 4.2 8.9 9.3v40.2z"/><path fill="#010101" stroke="#FFF" stroke-width="1.176" stroke-miterlimit="10" d="M171.3 784.8c0 5.1-3.8 8.3-8.9 8.3H12.1c-5.1 0-9.3-4.2-9.3-9.3v-39.2c0-5.1 4.1-9.3 9.3-9.3h150.4c5.1 0 8.9 4.2 8.9 9.3v40.2z"/><g fill="#FFF"><path d="M118 776.8l-1.3 1.2c-.3.2-.6.3-.9.5-.9.4-1.8.5-2.6.5s-2.2-.1-3.5-1c-1.9-1.3-2.7-3.6-2.7-5.6 0-4.1 3.3-6.1 6.1-6.1 1 0 1.9.2 2.7.7 1.3.9 1.7 2 1.9 2.6l-6.2 2.5-2 .2c.7 3.4 2.9 5.3 5.4 5.3 1.3 0 2.2-.4 3.1-.8-.1 0 .1-.1 0 0zm-3.8-6.7c.5-.2.8-.3.8-.7 0-1.1-1.2-2.3-2.6-2.3-1.1 0-3 .8-3 3.7 0 .4.1.9.1 1.4l4.7-2.1z"/><path d="M105 776.6c0 1 .2 1.2 1.1 1.3.5.1.9.1 1.4.1l-1 .6h-4.7c.6-.8.7-.9.7-1.4v-16.3h-2.1l2-1h3.8c-.8.5-1.1.8-1.2 1.7v15z"/><path d="M97.8 767.6c.6.5 1.9 1.6 1.9 3.6s-1.1 2.9-2.2 3.8c-.3.3-.7.7-.7 1.3 0 .6.4.9.7 1.1l1 .7c1.2 1 2.2 1.9 2.2 3.7 0 2.5-2.4 5-7 5-3.8 0-5.7-1.8-5.7-3.8 0-1 .5-2.3 2-3.2 1.6-1 3.9-1.1 5.1-1.2-.4-.5-.8-1-.8-1.8 0-.4.1-.7.3-1-.3 0-.6.1-.8.1-2.8 0-4.4-2.1-4.4-4.2 0-1.2.6-2.6 1.7-3.5 1.5-1.2 3.3-1.5 4.7-1.5h5.5l-1.7 1h-1.8v-.1zm-1.9 11.7h-.6c-.2 0-1.7.1-2.8.4-.6.2-2.3.8-2.3 2.7 0 1.9 1.8 3.2 4.7 3.2 2.5 0 3.9-1.2 3.9-2.9 0-1.2-.9-2-2.9-3.4zm.7-5c.6-.6.7-1.5.7-1.9 0-1.9-1.1-4.9-3.3-4.9-.7 0-1.4.3-1.9.9-.4.6-.6 1.3-.6 2 0 1.8 1 4.7 3.3 4.7.7-.1 1.4-.4 1.8-.8zM81.4 778.9c-4.2 0-6.5-3.3-6.5-6.2 0-3.5 2.8-6.4 6.9-6.4 3.9 0 6.3 3 6.3 6.2 0 3.1-2.4 6.4-6.7 6.4zm3.3-2.1c.6-.8.8-1.9.8-2.9 0-2.3-1.1-6.8-4.4-6.8-.9 0-1.8.3-2.4.9-1 .9-1.2 2.1-1.2 3.2 0 2.6 1.3 6.9 4.5 6.9 1 0 2.1-.5 2.7-1.3zM67.3 778.9c-4.2 0-6.5-3.3-6.5-6.2 0-3.5 2.8-6.4 6.9-6.4 3.9 0 6.3 3 6.3 6.2 0 3.1-2.4 6.4-6.7 6.4zm3.3-2.1c.6-.8.8-1.9.8-2.9 0-2.3-1.1-6.8-4.4-6.8-.9 0-1.7.3-2.4.9-1 .9-1.2 2.1-1.2 3.2 0 2.6 1.3 6.9 4.5 6.9 1 0 2.1-.5 2.7-1.3zM59.1 778l-3.5.8c-1.4.2-2.7.4-4.1.4-6.8 0-9.4-5-9.4-9 0-4.8 3.7-9.3 10-9.3 1.3 0 2.6.2 3.8.5 1.9.5 2.7 1.2 3.3 1.5l-2.1 2-.9.2.6-1c-.8-.8-2.4-2.3-5.3-2.3-3.9 0-6.9 3-6.9 7.3 0 4.7 3.4 9 8.8 9 1.6 0 2.4-.3 3.1-.6v-4l-3.7.2 2-1.1h5.3l-.6.6c-.2.1-.2.2-.2.4v1.2l-.2 3.2z"/><g><path d="M125.6 776.9v6.7h-1.3v-17.1h1.3v2c.9-1.3 2.5-2.3 4.3-2.3 3.3 0 5.6 2.5 5.6 6.5s-2.2 6.5-5.6 6.5c-1.7 0-3.3-.9-4.3-2.3zm8.4-4.2c0-3-1.6-5.3-4.3-5.3-1.7 0-3.4 1.4-4.1 2.5v5.5c.7 1.2 2.4 2.6 4.1 2.6 2.8 0 4.3-2.3 4.3-5.3zM137.3 778.9v-17.1h1.3v17.1h-1.3zM153.7 782.6c.3.1.8.2 1.1.2.8 0 1.4-.3 1.9-1.5l1-2.2-5.3-12.5h1.5l4.5 10.8 4.5-10.8h1.5l-6.4 15.1c-.7 1.6-1.7 2.3-3.2 2.3-.4 0-1-.1-1.3-.2l.2-1.2zM149.8 778.9c-.1-.4-.2-.8-.2-1.1 0-.3-.1-.6-.1-1-.5.7-1.1 1.2-1.9 1.7-.8.4-1.6.7-2.7.7-1.3 0-2.3-.3-3-1-.7-.7-1.1-1.5-1.1-2.6s.5-2 1.6-2.7c1-.7 2.4-1 4.1-1h3.1v-1.5c0-.9-.3-1.6-.9-2.1-.6-.5-1.5-.8-2.6-.8-1 0-1.8.2-2.5.7-.6.5-.9 1-.9 1.7h-1.4v-.1c0-.9.4-1.8 1.3-2.5s2.1-1.1 3.6-1.1 2.6.4 3.5 1.1c.9.7 1.3 1.7 1.3 3v6.1c0 .4 0 .9.1 1.3s.1.8.3 1.2h-1.6zm-4.8-1c1.1 0 2-.3 2.8-.8.8-.5 1.4-1.1 1.7-1.9v-2.4h-3.1c-1.2 0-2.2.3-3 .8-.8.5-1.2 1.2-1.2 1.9s.3 1.3.8 1.7c.4.5 1.1.7 2 .7z"/></g></g><g fill="#FFF"><path d="M42.1 747.7c0-2.6 2-4.3 4.4-4.3 1.6 0 2.7.8 3.4 1.7l-1.2.7c-.5-.6-1.2-1.1-2.2-1.1-1.7 0-2.9 1.3-2.9 3s1.2 3 2.9 3c.9 0 1.6-.4 2-.8v-1.3H46v-1.3h4v3.1c-.8.9-2 1.5-3.4 1.5-2.5.2-4.5-1.5-4.5-4.2zM51.8 751.9v-8.4h5.7v1.3h-4.3v2.2h4.2v1.3h-4.2v2.3h4.3v1.3h-5.7zM61.6 751.9v-7.1H59v-1.3h6.5v1.3H63v7.1h-1.4zM70.7 751.9v-8.4h1.5v8.4h-1.5zM76.2 751.9v-7.1h-2.5v-1.3h6.5v1.3h-2.5v7.1h-1.5zM85 747.7c0-2.5 1.8-4.3 4.3-4.3s4.3 1.8 4.3 4.3-1.8 4.3-4.3 4.3c-2.6.1-4.3-1.8-4.3-4.3zm7 0c0-1.7-1.1-3-2.8-3-1.7 0-2.8 1.3-2.8 3s1.1 3 2.8 3c1.7.1 2.8-1.3 2.8-3zM101.1 751.9l-4.4-6v6h-1.5v-8.4h1.5l4.3 5.8v-5.8h1.5v8.4h-1.4z"/></g><path fill="none" d="M24.6 772l4.3-4.3-4.3 4.3-13.7-13.7L24.6 772l-13.7 13.7L24.6 772l4.3 4.3z"/><linearGradient id="SVGID_1_" gradientUnits="userSpaceOnUse" x1="701.86" y1="9.416" x2="683.772" y2="-1.904" gradientTransform="rotate(45 -557.44 -430.845)"><stop offset="0" stop-color="#D7E69D"/><stop offset=".446" stop-color="#94C4AA"/><stop offset="1" stop-color="#01A4B6"/></linearGradient><path fill="url(#SVGID_1_)" d="M28.9 767.7l-16.7-9.2c-.5-.3-.9-.3-1.3-.2L24.6 772l4.3-4.3z"/><linearGradient id="SVGID_2_" gradientUnits="userSpaceOnUse" x1="691.346" y1="-.254" x2="714.796" y2="5.876" gradientTransform="rotate(45 -557.44 -430.845)"><stop offset="0" stop-color="#ED277B"/><stop offset=".019" stop-color="#EE2F7C"/><stop offset=".704" stop-color="#F7BD81"/><stop offset="1" stop-color="#FEEB74"/></linearGradient><path fill="url(#SVGID_2_)" d="M28.9 776.3l5.7-3.1c1.2-.6 1.2-1.7 0-2.3l-5.7-3.2-4.3 4.3 4.3 4.3z"/><linearGradient id="SVGID_3_" gradientUnits="userSpaceOnUse" x1="704.435" y1="18.002" x2="679.005" y2="3.04" gradientTransform="rotate(45 -557.44 -430.845)"><stop offset="0" stop-color="#89CFBD"/><stop offset=".091" stop-color="#7DBEBB"/><stop offset=".54" stop-color="#457CAC"/><stop offset=".852" stop-color="#1C5AA2"/><stop offset="1" stop-color="#084D9F"/></linearGradient><path fill="url(#SVGID_3_)" d="M10.9 758.3c-.5.2-.8.7-.8 1.5v24.5c0 .8.3 1.3.8 1.4L24.6 772l-13.7-13.7z"/><linearGradient id="SVGID_4_" gradientUnits="userSpaceOnUse" x1="713.67" y1="6.121" x2="698.01" y2="26.752" gradientTransform="rotate(45 -557.44 -430.845)"><stop offset="0" stop-color="#F04A2B"/><stop offset=".47" stop-color="#B54F6B"/><stop offset=".835" stop-color="#8B5191"/><stop offset="1" stop-color="#7851A1"/></linearGradient><path fill="url(#SVGID_4_)" d="M10.9 785.7c.4.1.8.1 1.3-.2l16.7-9.2-4.3-4.3-13.7 13.7z"/></svg>