<?xml version="1.0" encoding="utf-8"?>
<!-- Generator: Adobe Illustrator 12.0.0, SVG Export Plug-In  -->
<!DOCTYPE svg PUBLIC "-//W3C//DTD SVG 1.1//EN" "http://www.w3.org/Graphics/SVG/1.1/DTD/svg11.dtd" [
	<!ENTITY ns_flows "http://ns.adobe.com/Flows/1.0/">
	<!ENTITY ns_svg "http://www.w3.org/2000/svg">
	<!ENTITY ns_xlink "http://www.w3.org/1999/xlink">
]>
<svg  version="1.1" xmlns="&ns_svg;" xmlns:xlink="&ns_xlink;" xmlns:a="http://ns.adobe.com/AdobeSVGViewerExtensions/3.0/"
	 width="146" height="79" viewBox="-0.5620117 -0.0722656 146 79" enable-background="new -0.5620117 -0.0722656 146 79"
	 xml:space="preserve">
<defs>
</defs>
<path fill-rule="evenodd" clip-rule="evenodd" fill="#63C9E2" d="M0,68.0253906
	c2.5810547-1.4863281,4.8886719-2.8193359,7.2001953-4.1445313c2.0102539-1.1533203,4.0361328-2.2792969,6.03125-3.4580078
	c0.5766602-0.3408203,1.1459961-0.4863281,1.809082-0.484375c12.7553711,0.0273438,25.5112305-0.0361328,38.2646484,0.0947266
	C58.3691406,60.0859375,63.4516602,60.4433594,68.25,62.359375c2.4677734,0.9853516,4.7490234,2.2783203,6.609375,4.2363281
	c1.0947266,1.1513672,1.9169922,2.4443359,2.3945313,3.9609375c0.0922852,0.2929688,0.1567383,0.6367188,0.5756836,0.6738281
	c0.3896484,0.0341797,0.5869141-0.1787109,0.7041016-0.5107422c1.8632813-5.2558594,6.1464844-7.6357422,11.0488281-9.2451172
	c2.5576172-0.8388672,5.2275391-1.1123047,7.8984375-1.2773438c6.5869141-0.4082031,13.1845703-0.2324219,19.7773438-0.2998047
	c0.9873047-0.0097656,1.3193359,0.2480469,1.28125,1.2626953c-0.0761719,2.0371094-0.0810547,4.0800781,0.0019531,6.1162109
	c0.0410156,1.0400391-0.3291016,1.2773438-1.296875,1.2441406c-7.1103516-0.2490234-14.2255859-0.2294922-21.3388672-0.1728516
	c-2.7148438,0.0224609-5.4248047,0.2646484-8.0527344,1.0214844c-4.4667969,1.2851563-7.1865234,4.328125-8.4570313,8.6904297
	c-0.3408203,1.171875-1.1132813,0.7402344-1.7841797,0.8310547c-0.6660156,0.0908203-1.0957031-0.0625-1.2827148-0.8486328
	c-1.2514648-5.2470703-4.8266602-7.9316406-9.9169922-9.0126953c-4.6279297-0.9833984-9.3032227-0.7441406-13.9702148-0.7089844
	c-9.472168,0.0722656-18.9433594,0.1923828-28.4150391,0.296875c-3.9545898,0.0429688-7.9086914,0.1113281-11.8632813,0.1425781
	c-3.5561523,0.0273438-7.1025391-0.2099609-10.6464844-0.4755859C1.1225586,68.2548828,0.7329102,68.1533203,0,68.0253906z"/>
<path fill-rule="evenodd" clip-rule="evenodd" fill="#5F6162" d="M87.0600586,18.472168
	c3.5097656-4.3833008,7.8085938-5.690918,12.3691406-3.9506836c3.2314453,1.2324219,5.0244141,3.7753906,5.9892578,6.8984375
	c1.7011719,5.5,1.8535156,11.1113281,0.4355469,16.6865234c-1.7402344,6.8398438-6.4785156,9.9912109-14.1259766,9.625
	c-6.9931641-0.3349609-11.5595703-4.7734375-12.1171875-11.8066406c-0.0917969-1.1533203-0.1347656-2.3134766-0.1357422-3.4707031
	c-0.0107422-10.3149414,0.0195313-20.6303711-0.0390625-30.9453125c-0.0068359-1.2597656,0.3554688-1.5566406,1.5371094-1.480957
	c1.6328125,0.1040039,3.2792969,0.0776367,4.9150391,0.0063477c0.9199219-0.0400391,1.2050781,0.2070313,1.1953125,1.1689453
	c-0.0488281,5.3969727-0.0234375,10.7949219-0.0234375,16.1923828
	C87.0600586,17.6650391,87.0600586,17.9350586,87.0600586,18.472168z M98.5493164,30.5161133
	c0-1.0385742,0.0673828-2.0825195-0.0136719-3.1147461c-0.1777344-2.2724609-0.3857422-4.5551758-1.6621094-6.5498047
	c-1.0673828-1.6674805-2.7050781-2.3735352-4.6318359-2c-2.0517578,0.3979492-3.0380859,1.9370117-3.7773438,3.6757813
	c-0.8378906,1.9697266-1.1777344,4.0634766-1.3027344,6.1855469c-0.2060547,3.4804688-0.2128906,6.9589844,0.8925781,10.3188477
	c0.6962891,2.1176758,2.2236328,3.2338867,4.4736328,3.3696289c2.234375,0.1347656,3.7285156-0.8964844,4.6933594-2.8413086
	c0.4121094-0.8305664,0.6767578-1.7070313,0.8740234-2.6069336C98.559082,34.831543,98.644043,32.6782227,98.5493164,30.5161133z"/>
<path fill-rule="evenodd" clip-rule="evenodd" fill="#5F6162" d="M47.5654297,46.9882813
	c-3.0688477,0-5.8959961-0.0078125-8.7231445,0.0068359c-0.5634766,0.0019531-0.722168-0.4326172-0.9643555-0.7773438
	c-3.2138672-4.5830078-6.4213867-9.1704102-9.6313477-13.7563477c-0.3417969-0.487793-0.6860352-0.9741211-1.0922852-1.5517578
	c-0.3188477,0.4536133-0.2006836,0.890625-0.2016602,1.2851563c-0.0107422,4.5600586-0.03125,9.1206055,0.0117188,13.6801758
	c0.0083008,0.8808594-0.1962891,1.1757813-1.1210938,1.1367188C24.0068359,46.9316406,22.1640625,46.9658203,20.324707,47
	c-0.6689453,0.0126953-0.9887695-0.0820313-0.987793-0.8896484c0.0253906-15.0800781,0.0234375-30.159668,0.0029297-45.2397461
	c-0.0004883-0.7250977,0.2695313-0.8671875,0.909668-0.8564453c1.8393555,0.0307617,3.6821289,0.0639648,5.519043-0.0107422
	c0.9536133-0.0390625,1.203125,0.2504883,1.1987305,1.2001953c-0.0390625,7.9599609-0.0249023,15.9199219-0.0170898,23.8798828
	c0.0004883,0.4628906-0.1069336,0.9433594,0.1850586,1.5800781c1.5732422-1.8530273,3.0830078-3.628418,4.5898438-5.40625
	c1.6806641-1.9829102,3.3754883-3.9541016,5.0268555-5.9609375c0.4208984-0.512207,0.8520508-0.7265625,1.5219727-0.7167969
	c2.6293945,0.0380859,5.2592773,0.015625,7.9936523,0.015625c-0.1513672,0.6274414-0.5639648,0.9570313-0.8798828,1.3286133
	c-3.3710938,3.9570313-6.7348633,7.9208984-10.1513672,11.8388672c-0.5864258,0.6728516-0.5996094,1.0913086-0.0834961,1.8085938
	C39.2607422,35.2807617,43.3232422,41.0224609,47.5654297,46.9882813z"/>
<path fill-rule="evenodd" clip-rule="evenodd" fill="#5F6162" d="M75.4287109,30.6606445
	c-0.0703125,3.3901367-0.3935547,6.5961914-1.7890625,9.6015625c-2.1113281,4.5493164-5.7319336,6.9428711-10.6606445,7.4067383
	c-1.9521484,0.1835938-3.9116211,0.1474609-5.8388672-0.3232422c-4.7333984-1.1552734-7.7543945-4.1748047-9.1923828-8.7314453
	c-1.6303711-5.1655273-1.640625-10.4116211-0.003418-15.5727539c1.7524414-5.5244141,5.65625-8.5532227,11.4125977-9.1240234
	c2.1557617-0.2133789,4.3139648-0.0927734,6.4116211,0.5463867c5.6103516,1.7099609,8.1757813,5.9023438,9.2285156,11.3261719
	C75.3178711,27.4433594,75.3603516,29.1230469,75.4287109,30.6606445z M67.3295898,30.8300781
	c0-0.4394531,0.0175781-0.8793945-0.0029297-1.3183594c-0.1064453-2.3149414-0.2089844-4.6303711-1.1083984-6.8183594
	c-0.9365234-2.2768555-2.637207-3.4511719-5.090332-3.4902344c-2.4072266-0.0380859-4.21875,1.2158203-5.1557617,3.5708008
	c-0.2788086,0.7006836-0.4887695,1.440918-0.6269531,2.1826172c-0.53125,2.84375-0.5600586,5.7202148-0.3847656,8.5942383
	c0.1049805,1.7119141,0.2871094,3.4248047,0.9057617,5.0522461c1.0517578,2.769043,3.0688477,4.0629883,5.9458008,3.7729492
	c2.6933594-0.2724609,4.0400391-2.0449219,4.7568359-4.4248047C67.2675781,35.6328125,67.324707,33.230957,67.3295898,30.8300781z"
	/>
<path fill-rule="evenodd" clip-rule="evenodd" fill="#5F6162" d="M124.7104492,47.7373047
	c-7.3466797-0.0068359-12.2324219-4.0097656-13.6728516-11.2241211c-0.7519531-3.7670898-0.7792969-7.5478516-0.0136719-11.3110352
	c1.71875-8.4545898,7.8212891-12.1547852,15.9824219-11.2182617c5.890625,0.6757813,9.5595703,4.1044922,11.1611328,9.7363281
	c1.2949219,4.5546875,1.2939453,9.1772461,0.1328125,13.75C136.5864258,44.2236328,131.8481445,47.7441406,124.7104492,47.7373047z
	 M131.0415039,30.7480469c-0.0693359-1.2749023-0.1210938-2.5512695-0.2128906-3.824707
	c-0.09375-1.277832-0.3066406-2.5366211-0.7529297-3.7456055c-0.7177734-1.9448242-1.875-3.4375-4.0507813-3.8295898
	c-3.2509766-0.5854492-5.5449219,0.8286133-6.6220703,4.0634766c-0.6123047,1.840332-0.7431641,3.7568359-0.8095703,5.671875
	c-0.109375,3.1577148-0.1269531,6.324707,0.9003906,9.3647461c1.1083984,3.2792969,4.0693359,4.7597656,7.2324219,3.6552734
	c2.2558594-0.7880859,3.1757813-2.671875,3.6953125-4.8066406
	C130.9438477,35.1484375,131.0112305,32.9501953,131.0415039,30.7480469z"/>
<path fill-rule="evenodd" clip-rule="evenodd" fill="#7C6AAF" d="M132.1362305,64.2919922
	c0,1.1152344-0.0195313,2.2324219,0.0087891,3.3476563c0.0146484,0.5742188-0.1083984,0.8818359-0.7802734,0.8730469
	c-2.3515625-0.0302734-4.7041016-0.0214844-7.0566406-0.0039063c-0.546875,0.0039063-0.7861328-0.1650391-0.7802734-0.7509766
	c0.0234375-2.3515625,0.0273438-4.7041016,0-7.0556641c-0.0078125-0.6376953,0.2333984-0.8193359,0.8408203-0.8134766
	c2.3115234,0.0253906,4.625,0.0351563,6.9365234-0.0029297c0.7333984-0.0117188,0.8574219,0.3164063,0.8408203,0.9375
	C132.1137695,61.9785156,132.1362305,63.1357422,132.1362305,64.2919922z"/>
<path fill-rule="evenodd" clip-rule="evenodd" fill="#B93293" d="M141.0415039,68.4804688
	c-1.0800781,0.0009766-2.1611328-0.0273438-3.2402344,0.0107422c-0.6845703,0.0244141-1.0175781-0.140625-1.0029297-0.9228516
	c0.0439453-2.2792969,0.03125-4.5595703,0.0078125-6.8388672c-0.0068359-0.6171875,0.1972656-0.8417969,0.828125-0.8339844
	c2.3193359,0.0283203,4.6396484,0.0205078,6.9599609,0.0039063c0.5302734-0.0039063,0.8056641,0.1162109,0.7998047,0.7265625
	c-0.0253906,2.359375-0.0302734,4.7207031,0.0019531,7.0800781c0.0087891,0.6796875-0.3027344,0.7949219-0.875,0.7822266
	C143.3618164,68.4628906,142.2016602,68.4804688,141.0415039,68.4804688z"/>
</svg>
