<?xml version="1.0" encoding="UTF-8" standalone="no"?>
<svg width="220px" height="100px" viewBox="0 0 220 100" version="1.1" xmlns="http://www.w3.org/2000/svg" xmlns:xlink="http://www.w3.org/1999/xlink" xmlns:sketch="http://www.bohemiancoding.com/sketch/ns">
    <!-- Generator: Sketch 3.3.2 (12043) - http://www.bohemiancoding.com/sketch -->
    <title>amazon_kindle</title>
    <desc>Created with Sketch.</desc>
    <defs></defs>
    <g id="Page-1" stroke="none" stroke-width="1" fill="none" fill-rule="evenodd" sketch:type="MSPage">
        <g id="amazon_kindle" sketch:type="MSLayerGroup">
            <rect id="Rectangle-1" stroke="#FFFFFF" sketch:type="MSShapeGroup" x="0" y="0" width="220" height="100"></rect>
            <g id="Group" transform="translate(0.000000, 27.000000)" sketch:type="MSShapeGroup">
                <path d="M75.7912991,38.1834646 C68.691861,43.4280946 58.3944777,46.1783274 49.5681492,46.1783274 C37.1601222,46.1783274 25.9673143,41.5732864 17.5247392,33.9621771 C16.8851502,33.386547 17.4607803,32.5550812 18.2282871,33.0027935 C27.3744102,38.3113824 38.6311769,41.5093275 50.3356561,41.5093275 C58.202601,41.5093275 66.8370528,39.8463961 74.8319156,36.5205332 C75.9831758,36.008862 76.9425594,37.28804 75.7912991,38.1834646 L75.7912991,38.1834646 Z" id="Shape" fill="#FF9900"></path>
                <path d="M78.7334086,34.7936428 C77.837984,33.6423826 72.7212718,34.2180127 70.4187514,34.5378072 C69.7152034,34.6017661 69.5872856,34.026136 70.2268746,33.5784237 C74.3202444,30.7002731 80.9719702,31.5317388 81.739477,32.4911223 C82.5069839,33.4505059 81.5476003,40.1022317 77.7100662,43.3001768 C77.1344361,43.811848 76.558806,43.5560124 76.8146416,42.8524645 C77.7100662,40.7418207 79.6288333,35.9449031 78.7334086,34.7936428 L78.7334086,34.7936428 Z" id="Shape" fill="#FF9900"></path>
                <path d="M70.6106281,13.4313695 L70.6106281,10.6811367 C70.6106281,10.2334244 70.9304226,9.97758875 71.314176,9.97758875 L83.722203,9.97758875 C84.1059564,9.97758875 84.4257509,10.2973833 84.4257509,10.6811367 L84.4257509,13.0476161 C84.4257509,13.4313695 84.1059564,13.9430407 83.4663674,14.7745064 L77.0065183,23.9845883 C79.3729977,23.9206294 81.9313538,24.3043828 84.1059564,25.519602 C84.6176276,25.7754376 84.7455455,26.2231499 84.7455455,26.6069033 L84.7455455,29.5490128 C84.7455455,29.9327662 84.2978331,30.4444375 83.8501208,30.1886019 C80.0125867,28.2058759 74.9598334,27.9500403 70.7385459,30.1886019 C70.2908335,30.4444375 69.8431212,29.9327662 69.8431212,29.5490128 L69.8431212,26.7348211 C69.8431212,26.2871088 69.8431212,25.519602 70.2908335,24.8160541 L77.7740251,14.1349174 L71.2502171,14.1349174 C70.9304226,14.1349174 70.6106281,13.8151229 70.6106281,13.4313695 L70.6106281,13.4313695 Z" id="Shape" fill="#000000"></path>
                <path d="M25.2637664,30.764232 L21.4901911,30.764232 C21.1064377,30.764232 20.8506021,30.4444375 20.7866432,30.1246429 L20.7866432,10.7450956 C20.7866432,10.3613422 21.1064377,10.0415476 21.4901911,10.0415476 L25.0079308,10.0415476 C25.3916842,10.0415476 25.6475198,10.3613422 25.7114787,10.6811367 L25.7114787,13.2394928 L25.7754376,13.2394928 C26.6708622,10.8090545 28.3977526,9.65779424 30.764232,9.65779424 C33.1307114,9.65779424 34.6017661,10.8090545 35.6890674,13.2394928 C36.5844921,10.8090545 38.6951358,9.65779424 40.9336974,9.65779424 C42.53267,9.65779424 44.2595603,10.2973833 45.2829028,11.768438 C46.4981219,13.4313695 46.2422863,15.7978489 46.2422863,17.8445337 L46.2422863,30.060684 C46.2422863,30.4444375 45.9224918,30.764232 45.5387384,30.764232 L41.7651632,30.764232 C41.3814097,30.764232 41.0616152,30.4444375 41.0616152,30.060684 L41.0616152,19.7633008 C41.0616152,18.9318351 41.1255741,16.8851502 40.9336974,16.1176434 C40.6778618,14.8384653 39.7824372,14.4547119 38.6951358,14.4547119 C37.7997112,14.4547119 36.8403277,15.0943009 36.4565743,16.0536845 C36.0728209,17.013068 36.0728209,18.6759995 36.0728209,19.7633008 L36.0728209,30.060684 C36.0728209,30.4444375 35.7530263,30.764232 35.3692729,30.764232 L31.5956977,30.764232 C31.2119443,30.764232 30.8921498,30.4444375 30.8921498,30.060684 L30.8921498,19.7633008 C30.8921498,17.5886981 31.2759032,14.390753 28.5896293,14.390753 C25.9033554,14.390753 25.9673143,17.5247392 25.9673143,19.7633008 L25.9673143,30.060684 C26.0312732,30.4444375 25.7114787,30.764232 25.2637664,30.764232 L25.2637664,30.764232 Z" id="Shape" fill="#000000"></path>
                <path d="M95.1708465,9.59383533 C100.79923,9.59383533 103.805298,14.390753 103.805298,20.5308076 C103.805298,26.4789855 100.479435,31.1479854 95.1708465,31.1479854 C89.6703809,31.1479854 86.6643125,26.3510677 86.6643125,20.3389309 C86.6643125,14.2628352 89.6703809,9.59383533 95.1708465,9.59383533 L95.1708465,9.59383533 Z M95.1708465,13.5592873 C92.3566548,13.5592873 92.228737,17.3328625 92.228737,19.6993419 C92.228737,22.0658213 92.1647781,27.1185745 95.1708465,27.1185745 C98.112956,27.1185745 98.2408738,23.0252048 98.2408738,20.5308076 C98.2408738,18.8678762 98.1769149,16.9491091 97.6652437,15.4140954 C97.2175314,14.0709585 96.3860657,13.5592873 95.1708465,13.5592873 L95.1708465,13.5592873 Z" id="Shape" fill="#000000"></path>
                <path d="M111.096613,30.764232 L107.323038,30.764232 C106.939285,30.764232 106.61949,30.4444375 106.61949,30.060684 L106.61949,10.6171778 C106.61949,10.2334244 106.939285,9.97758875 107.323038,9.97758875 L110.840778,9.97758875 C111.160572,9.97758875 111.416408,10.2334244 111.544325,10.48926 L111.544325,13.4313695 L111.608284,13.4313695 C112.695586,10.7450956 114.16664,9.52987643 116.788955,9.52987643 C118.451887,9.52987643 120.114818,10.1694655 121.20212,11.8323969 C122.161503,13.4313695 122.161503,16.0536845 122.161503,17.9084926 L122.161503,30.1246429 C122.097544,30.4444375 121.841709,30.764232 121.457955,30.764232 L117.68438,30.764232 C117.364586,30.764232 117.044791,30.5083964 116.980832,30.1246429 L116.980832,19.5714241 C116.980832,17.4607803 117.236668,14.3267941 114.614353,14.3267941 C113.718928,14.3267941 112.823504,14.9663831 112.43975,15.8618078 C111.928079,17.0770269 111.86412,18.2282871 111.86412,19.5074652 L111.86412,30.060684 C111.800161,30.4444375 111.480367,30.764232 111.096613,30.764232 L111.096613,30.764232 Z" id="Shape" fill="#000000"></path>
                <path d="M60.6969982,21.4901911 C60.6969982,22.9612459 60.7609571,24.176465 59.9934503,25.519602 C59.4178202,26.6069033 58.4584366,27.2464923 57.3711353,27.2464923 C55.9000805,27.2464923 55.0686148,26.159191 55.0686148,24.4962596 C55.0686148,21.2983144 57.9467654,20.6587254 60.6969982,20.6587254 L60.6969982,21.4901911 L60.6969982,21.4901911 Z M64.5345323,30.7002731 C64.2786967,30.9561087 63.8949433,30.9561087 63.6391077,30.764232 C62.3599297,29.7408895 62.168053,29.2292183 61.464505,28.2698348 C59.4178202,30.3804786 57.9467654,31.0200676 55.2604915,31.0200676 C52.0625464,31.0200676 49.6321081,29.0373416 49.6321081,25.1358486 C49.6321081,22.0658213 51.2950396,19.9551775 53.661519,18.9318351 C55.7082038,18.0364104 58.5863544,17.8445337 60.7609571,17.652657 L60.7609571,17.1409858 C60.7609571,16.2455612 60.824916,15.1582598 60.3132448,14.390753 C59.8655325,13.6872051 58.9701079,13.4313695 58.202601,13.4313695 C56.7315463,13.4313695 55.4523682,14.1988763 55.1325737,15.669931 C55.0686148,15.9897256 54.8127792,16.373479 54.4929847,16.373479 L50.7833684,15.9897256 C50.4635739,15.9257667 50.1437793,15.669931 50.2077382,15.2222187 C51.039204,10.7450956 55.0686148,9.40195863 58.6503133,9.40195863 C60.5051215,9.40195863 62.8716009,9.91362985 64.3426556,11.2567668 C66.1974638,12.9836572 66.0055871,15.2861776 66.0055871,17.7805748 L66.0055871,23.6647938 C66.0055871,25.4556431 66.7730939,26.2231499 67.4126829,27.1825334 C67.6685186,27.502328 67.7324775,27.9500403 67.4126829,28.2058759 C66.6451761,28.8454649 65.3020392,29.9967251 64.5345323,30.7002731 L64.5345323,30.7002731 L64.5345323,30.7002731 Z" id="Shape" fill="#000000"></path>
                <path d="M11.128849,21.4901911 C11.128849,22.9612459 11.1928079,24.176465 10.4253011,25.519602 C9.84967094,26.6069033 8.89028741,27.2464923 7.80298607,27.2464923 C6.33193132,27.2464923 5.50046559,26.159191 5.50046559,24.4962596 C5.50046559,21.2983144 8.37861619,20.6587254 11.128849,20.6587254 L11.128849,21.4901911 L11.128849,21.4901911 Z M14.9663831,30.7002731 C14.7105475,30.9561087 14.3267941,30.9561087 14.0709585,30.764232 C12.7917804,29.7408895 12.5999037,29.2292183 11.8963558,28.2698348 C9.84967094,30.3804786 8.37861619,31.0200676 5.6923423,31.0200676 C2.49439719,31.0200676 0.0639589022,29.0373416 0.0639589022,25.1358486 C0.0639589022,22.0658213 1.72689036,19.9551775 4.09336974,18.9318351 C6.14005461,18.0364104 9.01820521,17.8445337 11.1928079,17.652657 L11.1928079,17.1409858 C11.1928079,16.2455612 11.2567668,15.1582598 10.7450956,14.390753 C10.2334244,13.6872051 9.33799973,13.4313695 8.5704929,13.4313695 C7.09943815,13.4313695 5.8202601,14.1988763 5.50046559,15.669931 C5.43650669,15.9897256 5.18067108,16.373479 4.86087657,16.373479 L1.21521914,15.9897256 C0.895424631,15.9257667 0.57563012,15.669931 0.639589022,15.2222187 C1.47105475,10.7450956 5.50046559,9.40195863 9.08216412,9.40195863 C10.9369723,9.40195863 13.3034517,9.91362985 14.7745064,11.2567668 C16.6293146,12.9836572 16.4374379,15.2861776 16.4374379,17.7805748 L16.4374379,23.6647938 C16.4374379,25.4556431 17.2049447,26.2231499 17.8445337,27.1825334 C18.1003693,27.502328 18.1643282,27.9500403 17.8445337,28.2058759 C17.0770269,28.8454649 15.7338899,29.9967251 14.9663831,30.7002731 L14.9663831,30.7002731 L14.9663831,30.7002731 Z" id="Shape" fill="#000000"></path>
                <path d="M139.686242,30.764232 L130.859914,20.0830953 L130.795955,20.0830953 L130.795955,30.764232 L127.59801,30.764232 L127.59801,0 L130.795955,0 L130.795955,17.4607803 L130.859914,17.4607803 L138.407064,10.2334244 L142.500434,10.2334244 L133.482229,18.6120405 L143.651694,30.764232 L139.686242,30.764232 L139.686242,30.764232 Z" id="Shape" fill="#FF9900"></path>
                <path d="M147.42527,5.88421901 C146.21005,5.88421901 145.186708,4.86087657 145.186708,3.64565743 C145.186708,2.43043828 146.21005,1.40709585 147.42527,1.40709585 C148.640489,1.40709585 149.663831,2.43043828 149.663831,3.64565743 C149.599872,4.92483547 148.640489,5.88421901 147.42527,5.88421901 L147.42527,5.88421901 Z M145.826297,30.764232 L145.826297,10.2334244 L149.024242,10.2334244 L149.024242,30.764232 L145.826297,30.764232 L145.826297,30.764232 Z" id="Shape" fill="#FF9900"></path>
                <path d="M166.804817,30.764232 L166.804817,18.1003693 C166.804817,15.5420132 166.357105,12.6638626 163.223118,12.6638626 C160.728721,12.6638626 158.426201,14.4547119 156.827228,15.7978489 L156.827228,30.764232 L153.629283,30.764232 L153.629283,10.2334244 L156.251598,10.2334244 L156.69931,12.7278215 C158.937872,11.0009312 161.176434,9.72175314 164.054584,9.72175314 C166.996694,9.72175314 169.938803,11.8323969 169.938803,16.9491091 L169.938803,30.764232 L166.804817,30.764232 L166.804817,30.764232 Z" id="Shape" fill="#FF9900"></path>
                <path d="M183.945803,31.1479854 C178.189502,31.1479854 173.392584,27.8221225 173.392584,20.7226843 C173.392584,14.3267941 177.997625,9.65779424 184.009762,9.65779424 C185.480816,9.65779424 186.504159,9.78571204 187.335625,9.97758875 L187.335625,0 L190.53357,0 L190.53357,29.6769306 C189.254392,30.4444375 186.887912,31.1479854 183.945803,31.1479854 L183.945803,31.1479854 Z M187.335625,12.9836572 C186.504159,12.6638626 185.800611,12.4719859 184.13768,12.4719859 C180.108269,12.4719859 176.590529,15.669931 176.590529,20.5308076 C176.590529,25.1998075 179.148885,28.4617115 184.457474,28.4617115 C185.480816,28.4617115 186.632077,28.2698348 187.271666,27.9500403 L187.271666,12.9836572 L187.335625,12.9836572 Z" id="Shape" fill="#FF9900"></path>
                <path d="M198.784268,31.1479854 C196.289871,31.1479854 195.20257,29.5490128 195.20257,27.3744102 L195.20257,0 L198.400515,0 L198.400515,25.9673143 C198.400515,27.9500403 198.848227,28.3337937 200.063446,28.3337937 C200.255323,28.3337937 200.639076,28.3337937 201.150748,28.2058759 L201.534501,30.5083964 C200.575117,30.9561087 199.807611,31.1479854 198.784268,31.1479854 L198.784268,31.1479854 Z" id="Shape" fill="#FF9900"></path>
                <path d="M206.651213,21.0424788 C206.651213,24.9439719 208.889775,28.4617115 213.302939,28.4617115 C215.157747,28.4617115 217.076514,27.6942047 218.291733,26.9266978 L219.315076,29.1652594 C217.780062,30.1886019 215.221706,31.1479854 212.919186,31.1479854 C206.395377,31.1479854 203.261391,25.9033554 203.261391,20.0191364 C203.261391,14.0709585 206.651213,9.65779424 211.576049,9.65779424 C216.884637,9.65779424 219.762788,13.8790818 219.762788,20.274972 L219.762788,21.0424788 L206.651213,21.0424788 L206.651213,21.0424788 Z M211.640007,12.3440681 C208.633939,12.3440681 206.715172,15.030342 206.715172,18.292246 L216.372966,18.292246 C216.372966,15.4780543 214.710035,12.3440681 211.640007,12.3440681 L211.640007,12.3440681 Z" id="Shape" fill="#FF9900"></path>
            </g>
        </g>
    </g>
</svg>