<?xml version="1.0" encoding="UTF-8" standalone="no"?>
<svg width="299px" height="108px" viewBox="0 0 299 108" version="1.1" xmlns="http://www.w3.org/2000/svg" xmlns:xlink="http://www.w3.org/1999/xlink" xmlns:sketch="http://www.bohemiancoding.com/sketch/ns">
    <!-- Generator: Sketch 3.3.2 (12043) - http://www.bohemiancoding.com/sketch -->
    <title>apple_ibooks</title>
    <desc>Created with Sketch.</desc>
    <defs></defs>
    <g id="Page-1" stroke="none" stroke-width="1" fill="none" fill-rule="evenodd" sketch:type="MSPage">
        <g id="apple_ibooks" sketch:type="MSLayerGroup">
            <g id="Group" sketch:type="MSShapeGroup">
                <path d="M281.152592,0.00267853658 L17.7453048,0.00267853658 C17.0676351,0.00267853658 16.3899653,0.00267853658 15.7122956,0.00535707316 C15.1390887,0.00803560973 14.5792746,0.0160712195 14.0087463,0.0294639024 C12.7632268,0.069641951 11.5069931,0.133926829 10.2748663,0.364280975 C9.02398973,0.583920974 7.86418339,0.953559022 6.73919803,1.53212292 C5.61956974,2.09997268 4.60708291,2.8338917 3.70977316,3.71513023 C2.82853463,4.61243999 2.09729414,5.62224828 1.52676585,6.7445551 C0.950880485,7.86686193 0.578563901,9.0293468 0.361602438,10.2802234 C0.128569756,11.5123502 0.0669634144,12.7685839 0.0241068292,14.0141034 C0.0107141463,14.5846317 0.00535707316,15.1417673 0.00267853658,15.7149741 C0,16.3926439 0,17.0703136 0,17.7479834 L0,89.409551 C0,90.073828 0,90.7648905 0.00267853658,91.4345246 C0.00535707316,91.9996958 0.0107141463,92.5755812 0.0241068292,93.1461095 C0.0669634144,94.4077002 0.131248292,95.6478627 0.361602438,96.8665968 C0.581242437,98.1335446 0.950880485,99.2933509 1.52676585,100.42905 C2.0946156,101.521893 2.82585609,102.569201 3.70977316,103.43169 C4.60708291,104.326321 5.6168912,105.073633 6.73919803,105.638804 C7.86150486,106.220047 9.02398973,106.560221 10.2748663,106.812003 C11.5069931,107.026286 12.7632268,107.093249 14.0087463,107.120035 C14.5792746,107.130749 15.1390887,107.136106 15.7122956,107.141463 C16.3899653,107.14682 17.0676351,107.14682 17.7453048,107.14682 L281.152592,107.14682 C281.827583,107.14682 282.507931,107.14682 283.18828,107.141463 C283.753451,107.136106 284.329336,107.130749 284.905222,107.120035 C286.145384,107.093249 287.401618,107.026286 288.636423,106.812003 C289.871228,106.560221 291.033713,106.220047 292.172091,105.638804 C293.297077,105.073633 294.306885,104.326321 295.190802,103.43169 C296.069362,102.569201 296.816674,101.521893 297.381845,100.42905 C297.963087,99.2933509 298.330047,98.1335446 298.549687,96.8665968 C298.769327,95.6478627 298.847005,94.4077002 298.879147,93.1461095 C298.900575,92.5755812 298.905932,91.9996958 298.905932,91.4345246 C298.911289,90.7648905 298.911289,90.073828 298.911289,89.409551 L298.911289,17.7479834 C298.911289,17.0676351 298.911289,16.3926439 298.905932,15.7122956 C298.905932,15.1417673 298.900575,14.5846317 298.879147,14.0114248 C298.847005,12.7659053 298.769327,11.5096717 298.549687,10.2775448 C298.330047,9.02666827 297.963087,7.86418339 297.381845,6.74187657 C296.816674,5.61956974 296.069362,4.60976145 295.190802,3.7124517 C294.306885,2.83121316 293.297077,2.09729414 292.172091,1.52944439 C291.031035,0.953559022 289.871228,0.581242437 288.636423,0.361602438 C287.401618,0.131248292 286.145384,0.0669634144 284.905222,0.0267853658 C284.329336,0.0133926829 283.753451,0.00803560973 283.18828,0.00535707316 C282.507931,0.00267853658 281.827583,0.00267853658 281.152592,0.00267853658 L281.152592,0.00267853658 L281.152592,0.00267853658 Z" id="Shape" fill="#A6A6A6"></path>
                <path d="M281.152592,2.64103707 L283.166851,2.6437156 C283.721308,2.64639414 284.281123,2.65175121 284.824866,2.67853658 C285.840031,2.70264341 287.015908,2.75085707 288.162322,2.96781853 C289.220344,3.15799463 290.109618,3.44995511 290.977464,3.88387804 C291.834596,4.32851511 292.624764,4.90172194 293.321184,5.59278437 C294.012246,6.28384681 294.588131,7.07133657 295.032768,7.93918242 C295.466691,8.8016712 295.758652,9.69094534 295.948828,10.7516458 C296.152397,11.8846668 296.205967,13.06858 296.230074,14.0730312 C296.246146,14.6274883 296.251503,15.1846239 296.251503,15.7471165 C296.25686,16.4167507 296.25686,17.0756707 296.25686,17.7506619 L296.25686,89.409551 C296.25686,90.068471 296.25686,90.7541763 296.251503,91.4184534 C296.251503,91.9729105 296.246146,92.5327246 296.230074,93.0818246 C296.203289,94.0916329 296.152397,95.2728675 295.948828,96.4139241 C295.76133,97.4505178 295.466691,98.3558631 295.032768,99.2344231 C294.588131,100.086198 294.012246,100.876366 293.321184,101.578143 C292.624764,102.258491 291.834596,102.829019 290.972107,103.257585 C290.109618,103.72365 289.220344,103.99954 288.167679,104.195073 C287.005194,104.393285 285.775746,104.473641 284.83558,104.49239 C284.28648,104.503105 283.732023,104.508462 283.166851,104.513819 C282.497217,104.519176 281.822226,104.519176 281.152592,104.519176 L17.7453048,104.519176 L17.7265551,104.519176 C17.0595995,104.519176 16.3953224,104.519176 15.7230097,104.513819 C15.1792668,104.508462 14.6194526,104.503105 14.0703526,104.49239 C13.1355434,104.470962 11.900738,104.393285 10.7462888,104.195073 C9.6882668,104.002218 8.79899266,103.72365 7.93114681,103.257585 C7.06597949,102.829019 6.27848974,102.258491 5.5874273,101.578143 C4.8990434,100.876366 4.32583657,100.086198 3.87852096,99.2344231 C3.44727658,98.3558631 3.15263755,97.4505178 2.96513999,96.408567 C2.74549999,95.2675105 2.69996487,94.0916329 2.67585804,93.0818246 C2.64907268,92.5273675 2.6437156,91.9675534 2.64103707,91.4184534 L2.64103707,89.8113315 L2.64103707,89.409551 L2.64103707,17.7479834 L2.64103707,17.3462029 L2.64103707,15.744438 C2.6437156,15.1873024 2.64907268,14.6301668 2.67585804,14.0730312 C2.69996487,13.0712585 2.74549999,11.8900239 2.96513999,10.7489673 C3.15263755,9.69362388 3.44727658,8.8016712 3.87852096,7.93650388 C4.32583657,7.07133657 4.90172194,6.28384681 5.59010584,5.59278437 C6.27848974,4.90707901 7.06597949,4.33119365 7.93114681,3.88387804 C8.79631412,3.45263365 9.68558827,3.16067316 10.7436102,2.97049706 C11.8873453,2.75085707 13.0659014,2.70264341 14.0703526,2.67853658 C14.6274883,2.65175121 15.1846239,2.64639414 15.7390809,2.6437156 L17.7453048,2.64103707 L281.152592,2.64103707" id="Shape" fill="#000000"></path>
                <g transform="translate(32.142439, 16.071219)" id="Shape" fill="#FFFFFF">
                    <path d="M48.5565111,36.9236267 C48.4788335,28.2907033 55.6251691,24.090758 55.9519506,23.8952248 C51.9046818,17.9944087 45.6315491,17.1881692 43.4271135,17.1238843 C38.1584321,16.5694273 33.0477843,20.2765219 30.3638906,20.2765219 C27.6264263,20.2765219 23.4934443,17.1774551 19.039038,17.2685253 C13.3069697,17.356917 7.94453949,20.6756238 5.00350633,25.8291282 C-1.06605756,36.3370272 3.46066926,51.7787906 9.27577217,60.2697515 C12.1846629,64.4295188 15.5837258,69.0741013 20.0327751,68.9133891 C24.385397,68.7312486 26.0112687,66.1357466 31.2638789,66.1357466 C36.4682755,66.1357466 37.9950414,68.9133891 42.5324823,68.8089262 C47.2038501,68.7312486 50.1448833,64.6277306 52.9519896,60.4331423 C56.313553,55.6626686 57.6635354,50.9698725 57.7171062,50.7288042 C57.6072862,50.6913047 48.6449028,47.268135 48.5565111,36.9236267 L48.5565111,36.9236267 Z"></path>
                    <path d="M39.985194,11.536457 C42.326235,8.60881656 43.9279999,4.62583267 43.4833628,0.583920974 C40.095014,0.733919022 35.8575692,2.92764048 33.4174223,5.79099608 C31.2585219,8.31417754 29.3299755,12.449838 29.8281833,16.3390731 C33.6343838,16.622998 37.5423687,14.4185624 39.985194,11.536457 L39.985194,11.536457 Z"></path>
                </g>
                <g transform="translate(117.855609, 16.071219)" id="Shape" fill="#FFFFFF">
                    <path d="M14.6757019,18.9988599 C13.0444731,19.6149234 11.3221741,19.9229551 9.50880485,19.9229551 C6.81419705,19.9229551 4.7088673,19.1917146 3.1928156,17.7265551 C1.62855024,16.2131819 0.846417559,14.131959 0.846417559,11.4855648 C0.846417559,8.85792046 1.68212097,6.74187657 3.35620633,5.14546877 C5.03029169,3.54638243 7.22937022,2.74817853 9.958799,2.74817853 C11.7052048,2.74817853 13.1114365,3.00531804 14.1774941,3.5222756 L13.5775019,5.71867559 C12.5435868,5.25261023 11.3221741,5.01957755 9.9079068,5.01957755 C8.02757412,5.01957755 6.52759364,5.56064194 5.41332242,6.64277071 C4.26423023,7.77579169 3.6910234,9.34005705 3.6910234,11.3355668 C3.6910234,13.3310765 4.2401234,14.9060561 5.3383234,16.0524697 C6.3856312,17.1506697 7.81864827,17.6997697 9.63201753,17.6997697 C10.76236,17.6997697 11.5793136,17.5845926 12.0775214,17.35156 L12.0775214,12.7819765 L9.00791851,12.7819765 L9.00791851,10.6605756 L14.6730234,10.6605756 L14.6730234,18.9988599 L14.6757019,18.9988599 Z"></path>
                    <path d="M28.7326619,13.108758 C28.7326619,13.5908946 28.6978409,14.0007107 28.633556,14.3328492 L20.5443756,14.3328492 C20.5791965,15.5301551 20.9702629,16.4462146 21.7175746,17.0783492 C22.4006014,17.6435204 23.2818399,17.9274453 24.3639687,17.9274453 C25.5612746,17.9274453 26.651439,17.7345907 27.6344619,17.3542385 L28.0603492,19.2265356 C26.911257,19.7274219 25.553239,19.9765258 23.9889736,19.9765258 C22.1086409,19.9765258 20.6327673,19.4220687 19.5586741,18.3158331 C18.4872595,17.2095975 17.9488736,15.7256882 17.9488736,13.8587483 C17.9488736,12.0293078 18.4497599,10.5052205 19.4461756,9.28916485 C20.4961619,7.99275315 21.9077507,7.34186876 23.6889775,7.34186876 C25.4353833,7.34186876 26.7585804,7.99007461 27.6585687,9.28916485 C28.373738,10.32308 28.7326619,11.5953848 28.7326619,13.108758 L28.7326619,13.108758 Z M26.1612668,12.40966 C26.177338,11.6114561 26.0032331,10.9203936 25.6362736,10.3391512 C25.1702082,9.58916095 24.4523604,9.21416583 23.4907658,9.21416583 C22.6068487,9.21416583 21.8916795,9.58112534 21.3425795,10.3123658 C20.8925853,10.8962868 20.6274102,11.5953848 20.5443756,12.40966 L26.1612668,12.40966 L26.1612668,12.40966 Z"></path>
                    <path d="M38.3673579,9.64005314 L35.3968609,9.64005314 L35.3968609,15.5301551 C35.3968609,17.027457 35.921854,17.7774473 36.9718404,17.7774473 C37.453977,17.7774473 37.8530789,17.7345907 38.1691462,17.6542346 L38.2414667,19.7006365 C37.7111165,19.9015268 37.0120184,20.0006326 36.1468511,20.0006326 C35.0834721,20.0006326 34.2504472,19.6765297 33.6477765,19.0256453 C33.0504628,18.3774395 32.7504667,17.2872751 32.7504667,15.7551522 L32.7504667,9.64005314 L30.9772755,9.64005314 L30.9772755,7.61775803 L32.7504667,7.61775803 L32.7504667,5.39457267 L35.3941823,4.59636877 L35.3941823,7.61775803 L38.3646794,7.61775803 L38.3646794,9.64005314 L38.3673579,9.64005314 Z"></path>
                    <path d="M51.5993286,3.99637657 C51.5993286,4.47851316 51.4386164,4.8695795 51.1225491,5.1695756 C50.8091603,5.46957169 50.3993443,5.61956974 49.8984579,5.61956974 C49.4511423,5.61956974 49.0707901,5.46421462 48.7627584,5.15618291 C48.4547267,4.84815121 48.3020501,4.46244194 48.3020501,3.99637657 C48.3020501,3.53031121 48.4600838,3.14728048 48.7788296,2.84728438 C49.0922184,2.54728829 49.4859633,2.39729024 49.9520286,2.39729024 C50.418094,2.39729024 50.8091603,2.54728829 51.1252277,2.84728438 C51.4386164,3.14728048 51.5993286,3.53031121 51.5993286,3.99637657 L51.5993286,3.99637657 Z M51.296654,19.7488502 L48.5993677,19.7488502 L48.5993677,7.61775803 L51.296654,7.61775803 L51.296654,19.7488502 L51.296654,19.7488502 Z"></path>
                    <path d="M61.804553,9.64005314 L58.8367345,9.64005314 L58.8367345,15.5301551 C58.8367345,17.027457 59.3617276,17.7774473 60.4090354,17.7774473 C60.891172,17.7774473 61.2929525,17.7345907 61.6063413,17.6542346 L61.6786618,19.7006365 C61.1509901,19.9015268 60.4492135,20.0006326 59.5867247,20.0006326 C58.5206672,20.0006326 57.6876423,19.6765297 57.0876501,19.0256453 C56.4876579,18.3774395 56.1903403,17.2872751 56.1903403,15.7551522 L56.1903403,9.64005314 L54.4171491,9.64005314 L54.4171491,7.61775803 L56.1903403,7.61775803 L56.1903403,5.39457267 L58.8340559,4.59636877 L58.8340559,7.61775803 L61.8018745,7.61775803 L61.8018745,9.64005314 L61.804553,9.64005314 Z"></path>
                    <path d="M83.1230256,13.582859 C83.1230256,15.4471204 82.5926754,16.9792434 81.5266178,18.1765492 C80.4096681,19.408676 78.9284373,20.0247395 77.0829256,20.0247395 C75.3016988,20.0247395 73.884753,19.4327829 72.826731,18.2515482 C71.7660305,17.0703136 71.2410374,15.5783687 71.2410374,13.7837492 C71.2410374,11.9034166 71.7847803,10.363258 72.8749447,9.16595217 C73.9624305,7.96864632 75.4329471,7.36865413 77.2811373,7.36865413 C79.0623642,7.36865413 80.4927027,7.96061071 81.57751,9.14184534 C82.6087466,10.288259 83.1230256,11.7694897 83.1230256,13.582859 L83.1230256,13.582859 Z M80.3266334,13.6712507 C80.3266334,12.5543009 80.0855651,11.5953848 79.6034286,10.7918239 C79.0355788,9.82487217 78.2293393,9.34005705 77.1820315,9.34005705 C76.0999027,9.34005705 75.2749134,9.82487217 74.7097422,10.7918239 C74.2276056,11.5927063 73.9838588,12.5703722 73.9838588,13.7194644 C73.9838588,14.8390926 74.2276056,15.7980087 74.7097422,16.5988912 C75.2936632,17.5658429 76.1079383,18.050658 77.1552461,18.050658 C78.1891612,18.050658 78.9954008,17.5578073 79.5766432,16.5747843 C80.0775295,15.7578307 80.3266334,14.7882004 80.3266334,13.6712507 L80.3266334,13.6712507 Z"></path>
                    <path d="M97.2281992,19.7488502 L94.5335914,19.7488502 L94.5335914,12.8007263 C94.5335914,10.657897 93.7166378,9.58648241 92.085409,9.58648241 C91.2872051,9.58648241 90.6389993,9.88112144 90.1381129,10.473078 C89.6372266,11.0623561 89.3908012,11.756097 89.3908012,12.5516224 L89.3908012,19.7488502 L86.6935149,19.7488502 L86.6935149,11.0864629 C86.6935149,10.0204053 86.6586939,8.86327754 86.594409,7.61775803 L88.9649139,7.61775803 L89.0908051,9.51416192 L89.1658041,9.51416192 C89.4818715,8.92488388 89.9479368,8.43739022 90.5613217,8.04900242 C91.2925622,7.59632973 92.1095158,7.36865413 93.0095041,7.36865413 C94.1398466,7.36865413 95.0800129,7.73561364 95.8300031,8.46685412 C96.7621339,9.36416388 97.2255207,10.7034322 97.2255207,12.484659 L97.2255207,19.7488502 L97.2281992,19.7488502 Z"></path>
                </g>
                <g transform="translate(117.855609, 45.535122)" id="Shape" fill="#FFFFFF">
                    <path d="M8.15882242,5.46689316 C8.15882242,6.49009413 7.82400534,7.31776193 7.1543712,7.9525751 C6.48473706,8.58738827 5.61956974,8.90345559 4.56154779,8.90345559 C3.61066731,8.90345559 2.80710633,8.57667412 2.15354341,7.92578973 C1.49998048,7.27490535 1.17587756,6.45527315 1.17587756,5.46689316 C1.17587756,4.48119169 1.51069463,3.66959511 2.18032877,3.03478194 C2.84996292,2.39996877 3.67763072,2.08390146 4.66601072,2.08390146 C5.65171218,2.08390146 6.48205852,2.39996877 7.15169266,3.03478194 C7.82400534,3.66691658 8.15882242,4.47851316 8.15882242,5.46689316 L8.15882242,5.46689316 Z M7.52400925,38.846816 L1.81069073,38.846816 L1.81069073,13.1355434 L7.52400925,13.1355434 L7.52400925,38.846816 L7.52400925,38.846816 Z"></path>
                    <path d="M39.1575262,28.6362346 C39.1575262,31.5290541 38.0834331,33.9263443 35.9298897,35.8307838 C33.4629575,38.0539692 29.2308697,39.1628833 23.2363048,39.1628833 C20.4854477,39.1628833 17.981016,39.0209209 15.7230097,38.7396745 L15.7230097,3.66691658 C18.1149429,3.17406584 21.0720473,2.92764048 24.5889658,2.92764048 C28.9523019,2.92764048 32.2495804,3.72048731 34.4861584,5.3088595 C36.7200579,6.89455315 37.8370077,9.08291754 37.8370077,11.8685956 C37.8370077,13.5614307 37.3227287,15.1042678 36.2914921,16.4971068 C35.257577,17.8926243 33.8165243,18.9238609 31.9656555,19.5934951 L31.9656555,19.7515287 C33.974558,20.247058 35.6325721,21.1979385 36.9370194,22.6068487 C38.4182501,24.2648629 39.1575262,26.2737653 39.1575262,28.6362346 L39.1575262,28.6362346 Z M32.1236892,12.4471595 C32.1236892,8.95702632 29.806755,7.21062047 25.1755653,7.21062047 C23.5604077,7.21062047 22.3148882,7.31776193 21.4363282,7.52936632 L21.4363282,18.0024443 L24.9612824,18.0024443 C27.171075,18.0024443 28.9174809,17.4962009 30.2004999,16.4703214 C31.4808404,15.449799 32.1236892,14.1078522 32.1236892,12.4471595 L32.1236892,12.4471595 Z M33.1817111,28.4782009 C33.1817111,26.362157 32.3567219,24.7577136 30.7067433,23.6621921 C29.2335482,22.6791692 27.2675024,22.1809614 24.8086058,22.1809614 L21.4390068,22.1809614 L21.4390068,34.6147282 C22.1407834,34.7566906 23.2979112,34.8263326 24.9130687,34.8263326 C27.3344658,34.8263326 29.2496194,34.3495531 30.6531726,33.3986726 C32.3379721,32.3058297 33.1817111,30.6638867 33.1817111,28.4782009 L33.1817111,28.4782009 Z"></path>
                    <path d="M69.312491,25.7809146 C69.312491,29.731756 68.1821486,32.9754638 65.9241423,35.5147165 C63.561673,38.1262897 60.4224281,39.430737 56.5064076,39.430737 C52.7323496,39.430737 49.7297101,38.1771818 47.4904535,35.6754287 C45.2485184,33.1683184 44.1288901,30.0156809 44.1288901,26.2068019 C44.1288901,22.2211395 45.2833394,18.9586819 47.5949165,16.4194292 C49.9011364,13.8828551 53.013596,12.6105502 56.9296164,12.6105502 C60.7036745,12.6105502 63.7357779,13.8614268 66.0286052,16.3658585 C68.2196481,18.7979697 69.312491,21.934536 69.312491,25.7809146 L69.312491,25.7809146 Z M63.3875681,25.963055 C63.3875681,23.5925502 62.8759676,21.5595409 61.8527667,19.8640273 C60.6554608,17.8122682 58.9438759,16.7890673 56.7206906,16.7890673 C54.4305418,16.7890673 52.6814574,17.8149468 51.4841516,19.8640273 C50.4609506,21.5622195 49.9520286,23.6300497 49.9520286,26.0701965 C49.9520286,28.4407014 50.4609506,30.4737106 51.4841516,32.1719028 C52.7189569,34.2236619 54.4439345,35.2468628 56.6697984,35.2468628 C58.8554842,35.2468628 60.5670691,34.2022336 61.8018745,32.1156536 C62.8572179,30.3853189 63.3875681,28.3335599 63.3875681,25.963055 L63.3875681,25.963055 Z"></path>
                    <path d="M99.044247,25.7809146 C99.044247,29.731756 97.9139046,32.9754638 95.6558983,35.5147165 C93.293429,38.1262897 90.1541841,39.430737 86.2381637,39.430737 C82.4667842,39.430737 79.4587876,38.1771818 77.219531,35.6754287 C74.9802744,33.1683184 73.8606461,30.0156809 73.8606461,26.2068019 C73.8606461,22.2211395 75.0177739,18.9586819 77.3266725,16.4194292 C79.635571,13.8828551 82.7480305,12.6105502 86.6613724,12.6105502 C90.4354305,12.6105502 93.4675339,13.8614268 95.7603612,16.3658585 C97.9487256,18.7979697 99.044247,21.934536 99.044247,25.7809146 L99.044247,25.7809146 Z M93.1193241,25.963055 C93.1193241,23.5925502 92.6077236,21.5595409 91.5845227,19.8640273 C90.3872168,17.8122682 88.6756319,16.7890673 86.4524466,16.7890673 C84.1622978,16.7890673 82.4132134,17.8149468 81.2159076,19.8640273 C80.1927066,21.5622195 79.6837847,23.6300497 79.6837847,26.0701965 C79.6837847,28.4407014 80.1927066,30.4737106 81.2159076,32.1719028 C82.4507129,34.2236619 84.178369,35.2468628 86.4015544,35.2468628 C88.5872402,35.2468628 90.2988251,34.2022336 91.5336305,32.1156536 C92.5862954,30.3853189 93.1193241,28.3335599 93.1193241,25.963055 L93.1193241,25.963055 Z"></path>
                    <path d="M127.924228,38.846816 L120.943962,38.846816 L113.16817,27.1041116 L110.995877,29.7451487 L110.995877,38.8441375 L105.282559,38.8441375 L105.282559,1.33926829 L110.995877,1.33926829 L110.995877,24.6130726 L111.103019,24.6130726 C111.807474,23.4880873 112.495858,22.4997073 113.16817,21.6532897 L119.781477,13.1355434 L126.606388,13.1355434 L117.135083,23.7157629 L127.924228,38.846816 L127.924228,38.846816 Z"></path>
                    <path d="M147.76147,31.4567336 C147.76147,33.8540238 146.880232,35.7664989 145.117755,37.2102301 C143.352599,38.6539614 140.920488,39.3744877 137.816064,39.3744877 C134.885745,39.3744877 132.402742,38.7932453 130.35634,37.6307604 L131.572395,33.3986726 C133.546477,34.5959784 135.646449,35.1986492 137.869635,35.1986492 C140.797275,35.1986492 142.259756,34.1218775 142.259756,31.9710126 C142.259756,31.0201321 141.943689,30.2353209 141.308876,29.6165789 C140.676741,29.0005155 139.546399,28.3924877 137.923205,27.789817 C133.337551,26.0969819 131.047402,23.6300497 131.047402,20.3836634 C131.047402,18.1631565 131.89382,16.3096092 133.586655,14.831057 C135.27949,13.3471478 137.518746,12.6078717 140.304424,12.6078717 C142.843677,12.6078717 145.013292,13.1248292 146.813268,14.1614229 L145.597213,18.2676195 C143.939199,17.2792395 142.192793,16.7863887 140.357995,16.7863887 C139.160689,16.7863887 138.223202,17.0676351 137.556246,17.6274492 C136.883933,18.1926204 136.549116,18.9131468 136.549116,19.7943853 C136.549116,20.6756238 136.902683,21.3961502 137.609817,21.9586429 C138.209809,22.483636 139.372294,23.0648785 141.102628,23.6970131 C145.538285,25.3898482 147.76147,27.974636 147.76147,31.4567336 L147.76147,31.4567336 Z"></path>
                </g>
            </g>
        </g>
    </g>
</svg>